<mxfile host="Electron" modified="2024-10-02T17:18:04.797Z" agent="Mozilla/5.0 (Macintosh; Intel Mac OS X 10_15_7) AppleWebKit/537.36 (KHTML, like Gecko) draw.io/21.5.1 Chrome/112.0.5615.204 Electron/24.6.0 Safari/537.36" etag="0CQJBxUTG5h9CrPv144o" version="21.5.1" type="device">
  <diagram id="3KpCuxQ_c4QXufELQHb9" name="迭代开发">
    <mxGraphModel dx="1795" dy="830" grid="0" gridSize="10" guides="1" tooltips="1" connect="1" arrows="1" fold="1" page="1" pageScale="1" pageWidth="3300" pageHeight="4681" math="0" shadow="0">
      <root>
        <mxCell id="0" />
        <mxCell id="1" parent="0" />
        <mxCell id="1lh8aVLY4LD8ihJvDelh-38" value="" style="endArrow=none;dashed=1;html=1;rounded=0;" parent="1" edge="1">
          <mxGeometry width="50" height="50" relative="1" as="geometry">
            <mxPoint x="1474.67" y="715" as="sourcePoint" />
            <mxPoint x="1473.32" y="630" as="targetPoint" />
          </mxGeometry>
        </mxCell>
        <mxCell id="1lh8aVLY4LD8ihJvDelh-15" value="" style="endArrow=none;dashed=1;html=1;rounded=0;" parent="1" edge="1">
          <mxGeometry width="50" height="50" relative="1" as="geometry">
            <mxPoint x="1213.68" y="715" as="sourcePoint" />
            <mxPoint x="1212.33" y="630" as="targetPoint" />
          </mxGeometry>
        </mxCell>
        <mxCell id="phhaPKZVlvS99XA9p7FY-21" value="" style="endArrow=none;dashed=1;html=1;rounded=0;" parent="1" edge="1">
          <mxGeometry width="50" height="50" relative="1" as="geometry">
            <mxPoint x="741.35" y="715" as="sourcePoint" />
            <mxPoint x="740" y="630" as="targetPoint" />
          </mxGeometry>
        </mxCell>
        <mxCell id="SEHdpoZrd5pocQDFk0l2-4" value="" style="endArrow=none;dashed=1;html=1;rounded=0;exitX=0.5;exitY=1;exitDx=0;exitDy=0;" parent="1" source="hoZQyRPOj8_Hlta-pUG5-1" edge="1">
          <mxGeometry width="50" height="50" relative="1" as="geometry">
            <mxPoint x="310" y="514" as="sourcePoint" />
            <mxPoint x="310" y="214" as="targetPoint" />
          </mxGeometry>
        </mxCell>
        <mxCell id="1z-WkMcSdw22KgMj-NQd-9" value="" style="endArrow=none;dashed=1;html=1;rounded=0;" parent="1" edge="1">
          <mxGeometry width="50" height="50" relative="1" as="geometry">
            <mxPoint x="777.5" y="307" as="sourcePoint" />
            <mxPoint x="777" y="214" as="targetPoint" />
          </mxGeometry>
        </mxCell>
        <mxCell id="phhaPKZVlvS99XA9p7FY-20" style="edgeStyle=orthogonalEdgeStyle;rounded=0;orthogonalLoop=1;jettySize=auto;html=1;exitX=0.5;exitY=1;exitDx=0;exitDy=0;entryX=0.5;entryY=0;entryDx=0;entryDy=0;strokeColor=#FF0000;fillColor=#e51400;" parent="1" source="hoZQyRPOj8_Hlta-pUG5-1" target="phhaPKZVlvS99XA9p7FY-4" edge="1">
          <mxGeometry relative="1" as="geometry" />
        </mxCell>
        <mxCell id="hoZQyRPOj8_Hlta-pUG5-1" value="" style="ellipse;whiteSpace=wrap;html=1;aspect=fixed;fillColor=#FF0000;flipH=0;flipV=1;" parent="1" vertex="1">
          <mxGeometry x="300" y="264" width="20" height="20" as="geometry" />
        </mxCell>
        <mxCell id="_HMHINfQkD_WYXeheRup-2" value="[永久] 主分支" style="text;html=1;align=center;verticalAlign=middle;resizable=0;points=[];autosize=1;strokeColor=none;fillColor=none;fontSize=12;" parent="1" vertex="1">
          <mxGeometry x="110" y="244" width="90" height="30" as="geometry" />
        </mxCell>
        <mxCell id="Y0vSX-FRkT1nPvIpc78j-3" style="edgeStyle=orthogonalEdgeStyle;rounded=0;orthogonalLoop=1;jettySize=auto;html=1;exitX=1;exitY=0.5;exitDx=0;exitDy=0;entryX=0;entryY=0.5;entryDx=0;entryDy=0;strokeColor=#B48AC7;curved=1;fillColor=#e1d5e7;" parent="1" source="57vWn-LNByuSX6ktKY7C-1" target="kvFf5aI4TLr12WVXasaN-1" edge="1">
          <mxGeometry relative="1" as="geometry">
            <Array as="points">
              <mxPoint x="446" y="314" />
              <mxPoint x="446" y="354" />
            </Array>
          </mxGeometry>
        </mxCell>
        <mxCell id="Q_ObnjQQPtVvvJmuImZ4-18" style="edgeStyle=orthogonalEdgeStyle;rounded=0;orthogonalLoop=1;jettySize=auto;html=1;exitX=1;exitY=0.5;exitDx=0;exitDy=0;entryX=0;entryY=0.5;entryDx=0;entryDy=0;strokeColor=#9933FF;fillColor=#e1d5e7;" parent="1" source="57vWn-LNByuSX6ktKY7C-1" target="Q_ObnjQQPtVvvJmuImZ4-14" edge="1">
          <mxGeometry relative="1" as="geometry" />
        </mxCell>
        <mxCell id="57vWn-LNByuSX6ktKY7C-1" value="" style="ellipse;whiteSpace=wrap;html=1;aspect=fixed;fillColor=#CC99FF;flipH=0;flipV=1;fontColor=#000000;strokeColor=#9933FF;" parent="1" vertex="1">
          <mxGeometry x="386" y="304" width="20" height="20" as="geometry" />
        </mxCell>
        <mxCell id="VEzvjpiakfpOSccEraqy-1" style="edgeStyle=orthogonalEdgeStyle;rounded=0;orthogonalLoop=1;jettySize=auto;html=1;exitX=1;exitY=0.5;exitDx=0;exitDy=0;entryX=0;entryY=0.5;entryDx=0;entryDy=0;curved=1;fillColor=#e1d5e7;strokeColor=#9933FF;" parent="1" source="hoZQyRPOj8_Hlta-pUG5-1" target="57vWn-LNByuSX6ktKY7C-1" edge="1">
          <mxGeometry relative="1" as="geometry">
            <mxPoint x="540" y="343.5" as="sourcePoint" />
            <mxPoint x="480" y="298.5" as="targetPoint" />
            <Array as="points">
              <mxPoint x="360" y="274" />
              <mxPoint x="360" y="314" />
            </Array>
          </mxGeometry>
        </mxCell>
        <mxCell id="VEzvjpiakfpOSccEraqy-2" value="1.1.0-alpha1" style="text;html=1;align=center;verticalAlign=middle;resizable=0;points=[];autosize=1;strokeColor=none;fillColor=none;fontSize=11;" parent="1" vertex="1">
          <mxGeometry x="304" y="307" width="80" height="30" as="geometry" />
        </mxCell>
        <mxCell id="Q_ObnjQQPtVvvJmuImZ4-12" style="edgeStyle=orthogonalEdgeStyle;rounded=0;orthogonalLoop=1;jettySize=auto;html=1;exitX=1;exitY=0.5;exitDx=0;exitDy=0;entryX=0;entryY=0.5;entryDx=0;entryDy=0;strokeColor=#B48AC7;fillColor=#e1d5e7;" parent="1" source="kvFf5aI4TLr12WVXasaN-1" target="Q_ObnjQQPtVvvJmuImZ4-10" edge="1">
          <mxGeometry relative="1" as="geometry" />
        </mxCell>
        <mxCell id="kvFf5aI4TLr12WVXasaN-1" value="" style="ellipse;whiteSpace=wrap;html=1;aspect=fixed;fillColor=#C2C2F2;flipH=0;flipV=1;strokeColor=#9393B8;" parent="1" vertex="1">
          <mxGeometry x="466" y="344" width="20" height="20" as="geometry" />
        </mxCell>
        <mxCell id="kvFf5aI4TLr12WVXasaN-4" value="1.1.0-alpha1-feat1" style="text;html=1;align=center;verticalAlign=middle;resizable=0;points=[];autosize=1;strokeColor=none;fillColor=none;fontSize=11;" parent="1" vertex="1">
          <mxGeometry x="329" y="339.5" width="110" height="30" as="geometry" />
        </mxCell>
        <mxCell id="327iavTLtY5rzM3lvbcU-3" style="edgeStyle=orthogonalEdgeStyle;rounded=0;orthogonalLoop=1;jettySize=auto;html=1;exitX=1;exitY=0.5;exitDx=0;exitDy=0;entryX=0;entryY=0.5;entryDx=0;entryDy=0;strokeColor=#9EA9B3;curved=1;fillColor=#647687;" parent="1" source="kvFf5aI4TLr12WVXasaN-5" target="327iavTLtY5rzM3lvbcU-1" edge="1">
          <mxGeometry relative="1" as="geometry" />
        </mxCell>
        <mxCell id="327iavTLtY5rzM3lvbcU-8" style="edgeStyle=orthogonalEdgeStyle;rounded=0;orthogonalLoop=1;jettySize=auto;html=1;exitX=1;exitY=0.5;exitDx=0;exitDy=0;entryX=0;entryY=0.5;entryDx=0;entryDy=0;strokeColor=#B98DCC;fillColor=#e1d5e7;" parent="1" source="kvFf5aI4TLr12WVXasaN-5" target="T2FqpLJ4nfcQgX2y-86o-1" edge="1">
          <mxGeometry relative="1" as="geometry">
            <mxPoint x="596" y="394" as="targetPoint" />
          </mxGeometry>
        </mxCell>
        <mxCell id="kvFf5aI4TLr12WVXasaN-5" value="" style="ellipse;whiteSpace=wrap;html=1;aspect=fixed;fillColor=#C2C2F2;flipH=0;flipV=1;strokeColor=#9393B8;" parent="1" vertex="1">
          <mxGeometry x="466" y="384" width="20" height="20" as="geometry" />
        </mxCell>
        <mxCell id="Y0vSX-FRkT1nPvIpc78j-2" style="edgeStyle=orthogonalEdgeStyle;rounded=0;orthogonalLoop=1;jettySize=auto;html=1;exitX=1;exitY=0.5;exitDx=0;exitDy=0;entryX=0;entryY=0.5;entryDx=0;entryDy=0;curved=1;fillColor=#e1d5e7;strokeColor=#B48AC7;" parent="1" source="57vWn-LNByuSX6ktKY7C-1" target="kvFf5aI4TLr12WVXasaN-5" edge="1">
          <mxGeometry relative="1" as="geometry">
            <mxPoint x="426" y="314" as="sourcePoint" />
            <mxPoint x="506" y="354" as="targetPoint" />
            <Array as="points">
              <mxPoint x="436" y="314" />
              <mxPoint x="436" y="394" />
            </Array>
          </mxGeometry>
        </mxCell>
        <mxCell id="Y0vSX-FRkT1nPvIpc78j-4" value="1.1.0-alpha1-feat2" style="text;html=1;align=center;verticalAlign=middle;resizable=0;points=[];autosize=1;strokeColor=none;fillColor=none;fontSize=11;" parent="1" vertex="1">
          <mxGeometry x="329" y="382" width="110" height="30" as="geometry" />
        </mxCell>
        <mxCell id="Q_ObnjQQPtVvvJmuImZ4-1" style="edgeStyle=orthogonalEdgeStyle;rounded=0;orthogonalLoop=1;jettySize=auto;html=1;exitX=1;exitY=0.5;exitDx=0;exitDy=0;entryX=0;entryY=0.5;entryDx=0;entryDy=0;strokeColor=#9EA9B3;fillColor=#647687;" parent="1" source="327iavTLtY5rzM3lvbcU-1" target="ZpT2IFcDazbsWK8GKsLC-1" edge="1">
          <mxGeometry relative="1" as="geometry" />
        </mxCell>
        <mxCell id="327iavTLtY5rzM3lvbcU-1" value="" style="ellipse;whiteSpace=wrap;html=1;aspect=fixed;fillColor=#D8E7F5;flipH=0;flipV=1;strokeColor=#A0ABB5;" parent="1" vertex="1">
          <mxGeometry x="546" y="424" width="20" height="20" as="geometry" />
        </mxCell>
        <mxCell id="Q_ObnjQQPtVvvJmuImZ4-6" style="edgeStyle=orthogonalEdgeStyle;rounded=0;orthogonalLoop=1;jettySize=auto;html=1;exitX=1;exitY=0.5;exitDx=0;exitDy=0;entryX=0;entryY=0.5;entryDx=0;entryDy=0;strokeColor=#9EA9B3;fillColor=#647687;" parent="1" source="327iavTLtY5rzM3lvbcU-4" target="ZpT2IFcDazbsWK8GKsLC-2" edge="1">
          <mxGeometry relative="1" as="geometry" />
        </mxCell>
        <mxCell id="327iavTLtY5rzM3lvbcU-4" value="" style="ellipse;whiteSpace=wrap;html=1;aspect=fixed;fillColor=#D8E7F5;flipH=0;flipV=1;strokeColor=#A0ABB5;" parent="1" vertex="1">
          <mxGeometry x="546" y="464" width="20" height="20" as="geometry" />
        </mxCell>
        <mxCell id="327iavTLtY5rzM3lvbcU-5" style="edgeStyle=orthogonalEdgeStyle;rounded=0;orthogonalLoop=1;jettySize=auto;html=1;exitX=1;exitY=0.5;exitDx=0;exitDy=0;entryX=0;entryY=0.5;entryDx=0;entryDy=0;strokeColor=#9EA9B3;curved=1;fillColor=#647687;" parent="1" source="kvFf5aI4TLr12WVXasaN-5" target="327iavTLtY5rzM3lvbcU-4" edge="1">
          <mxGeometry relative="1" as="geometry">
            <mxPoint x="466" y="444" as="sourcePoint" />
            <mxPoint x="526" y="484" as="targetPoint" />
            <Array as="points">
              <mxPoint x="506" y="394" />
              <mxPoint x="506" y="474" />
            </Array>
          </mxGeometry>
        </mxCell>
        <mxCell id="327iavTLtY5rzM3lvbcU-6" value="1.1.0-alpha1-feat2-shm" style="text;html=1;align=center;verticalAlign=middle;resizable=0;points=[];autosize=1;strokeColor=none;fillColor=none;fontSize=11;" parent="1" vertex="1">
          <mxGeometry x="370" y="419" width="140" height="30" as="geometry" />
        </mxCell>
        <mxCell id="327iavTLtY5rzM3lvbcU-7" value="1.1.0-alpha1-feat2-kjh" style="text;html=1;align=center;verticalAlign=middle;resizable=0;points=[];autosize=1;strokeColor=none;fillColor=none;fontSize=11;" parent="1" vertex="1">
          <mxGeometry x="373" y="457" width="130" height="30" as="geometry" />
        </mxCell>
        <mxCell id="Q_ObnjQQPtVvvJmuImZ4-8" style="edgeStyle=orthogonalEdgeStyle;rounded=0;orthogonalLoop=1;jettySize=auto;html=1;exitX=1;exitY=0.5;exitDx=0;exitDy=0;entryX=0;entryY=0.5;entryDx=0;entryDy=0;strokeColor=#B48AC7;fillColor=#e1d5e7;" parent="1" source="T2FqpLJ4nfcQgX2y-86o-1" target="Q_ObnjQQPtVvvJmuImZ4-3" edge="1">
          <mxGeometry relative="1" as="geometry" />
        </mxCell>
        <mxCell id="T2FqpLJ4nfcQgX2y-86o-1" value="" style="ellipse;whiteSpace=wrap;html=1;aspect=fixed;fillColor=#C2C2F2;flipH=0;flipV=1;strokeColor=#9393B8;" parent="1" vertex="1">
          <mxGeometry x="636" y="384" width="20" height="20" as="geometry" />
        </mxCell>
        <mxCell id="Q_ObnjQQPtVvvJmuImZ4-4" style="edgeStyle=orthogonalEdgeStyle;rounded=0;orthogonalLoop=1;jettySize=auto;html=1;exitX=1;exitY=0.5;exitDx=0;exitDy=0;entryX=0.5;entryY=1;entryDx=0;entryDy=0;strokeColor=#9EA9B3;curved=1;fillColor=#647687;" parent="1" source="ZpT2IFcDazbsWK8GKsLC-1" target="T2FqpLJ4nfcQgX2y-86o-1" edge="1">
          <mxGeometry relative="1" as="geometry" />
        </mxCell>
        <mxCell id="ZpT2IFcDazbsWK8GKsLC-1" value="" style="ellipse;whiteSpace=wrap;html=1;aspect=fixed;fillColor=#D8E7F5;flipH=0;flipV=1;strokeColor=#A0ABB5;" parent="1" vertex="1">
          <mxGeometry x="596" y="424" width="20" height="20" as="geometry" />
        </mxCell>
        <mxCell id="Q_ObnjQQPtVvvJmuImZ4-7" style="edgeStyle=orthogonalEdgeStyle;rounded=0;orthogonalLoop=1;jettySize=auto;html=1;exitX=1;exitY=0.5;exitDx=0;exitDy=0;strokeColor=#9EA9B3;fillColor=#647687;" parent="1" source="ZpT2IFcDazbsWK8GKsLC-2" target="Q_ObnjQQPtVvvJmuImZ4-2" edge="1">
          <mxGeometry relative="1" as="geometry" />
        </mxCell>
        <mxCell id="ZpT2IFcDazbsWK8GKsLC-2" value="" style="ellipse;whiteSpace=wrap;html=1;aspect=fixed;fillColor=#D8E7F5;flipH=0;flipV=1;strokeColor=#A0ABB5;" parent="1" vertex="1">
          <mxGeometry x="596" y="464" width="20" height="20" as="geometry" />
        </mxCell>
        <mxCell id="Q_ObnjQQPtVvvJmuImZ4-5" style="edgeStyle=orthogonalEdgeStyle;rounded=0;orthogonalLoop=1;jettySize=auto;html=1;exitX=1;exitY=0.5;exitDx=0;exitDy=0;entryX=0.5;entryY=1;entryDx=0;entryDy=0;strokeColor=#9EA9B3;curved=1;fillColor=#647687;" parent="1" source="Q_ObnjQQPtVvvJmuImZ4-2" target="Q_ObnjQQPtVvvJmuImZ4-3" edge="1">
          <mxGeometry relative="1" as="geometry" />
        </mxCell>
        <mxCell id="Q_ObnjQQPtVvvJmuImZ4-2" value="" style="ellipse;whiteSpace=wrap;html=1;aspect=fixed;fillColor=#D8E7F5;flipH=0;flipV=1;strokeColor=#A0ABB5;" parent="1" vertex="1">
          <mxGeometry x="646" y="464" width="20" height="20" as="geometry" />
        </mxCell>
        <mxCell id="Q_ObnjQQPtVvvJmuImZ4-17" style="edgeStyle=orthogonalEdgeStyle;rounded=0;orthogonalLoop=1;jettySize=auto;html=1;exitX=1;exitY=0.5;exitDx=0;exitDy=0;entryX=0.5;entryY=1;entryDx=0;entryDy=0;curved=1;strokeColor=#B48AC7;fontSize=11;fillColor=#e1d5e7;" parent="1" source="Q_ObnjQQPtVvvJmuImZ4-3" target="Q_ObnjQQPtVvvJmuImZ4-16" edge="1">
          <mxGeometry relative="1" as="geometry" />
        </mxCell>
        <mxCell id="XZW1rvqW2NVwTFlPKyWL-6" style="edgeStyle=orthogonalEdgeStyle;rounded=0;orthogonalLoop=1;jettySize=auto;html=1;exitX=1;exitY=0.5;exitDx=0;exitDy=0;entryX=0;entryY=0.5;entryDx=0;entryDy=0;curved=1;strokeColor=#FF0000;fillColor=#e51400;" parent="1" source="Q_ObnjQQPtVvvJmuImZ4-3" target="XZW1rvqW2NVwTFlPKyWL-5" edge="1">
          <mxGeometry relative="1" as="geometry" />
        </mxCell>
        <mxCell id="Q_ObnjQQPtVvvJmuImZ4-3" value="" style="ellipse;whiteSpace=wrap;html=1;aspect=fixed;fillColor=#C2C2F2;flipH=0;flipV=1;strokeColor=#9393B8;" parent="1" vertex="1">
          <mxGeometry x="706" y="384" width="20" height="20" as="geometry" />
        </mxCell>
        <mxCell id="Q_ObnjQQPtVvvJmuImZ4-13" style="edgeStyle=orthogonalEdgeStyle;rounded=0;orthogonalLoop=1;jettySize=auto;html=1;exitX=1;exitY=0.5;exitDx=0;exitDy=0;entryX=0;entryY=0.5;entryDx=0;entryDy=0;strokeColor=#B48AC7;fillColor=#e1d5e7;" parent="1" source="Q_ObnjQQPtVvvJmuImZ4-10" target="Q_ObnjQQPtVvvJmuImZ4-11" edge="1">
          <mxGeometry relative="1" as="geometry" />
        </mxCell>
        <mxCell id="Q_ObnjQQPtVvvJmuImZ4-10" value="" style="ellipse;whiteSpace=wrap;html=1;aspect=fixed;fillColor=#C2C2F2;flipH=0;flipV=1;strokeColor=#9393B8;" parent="1" vertex="1">
          <mxGeometry x="526" y="344" width="20" height="20" as="geometry" />
        </mxCell>
        <mxCell id="Q_ObnjQQPtVvvJmuImZ4-15" style="edgeStyle=orthogonalEdgeStyle;rounded=0;orthogonalLoop=1;jettySize=auto;html=1;exitX=1;exitY=0.5;exitDx=0;exitDy=0;entryX=0.5;entryY=1;entryDx=0;entryDy=0;strokeColor=#B48AC7;curved=1;fillColor=#e1d5e7;" parent="1" source="Q_ObnjQQPtVvvJmuImZ4-11" target="Q_ObnjQQPtVvvJmuImZ4-14" edge="1">
          <mxGeometry relative="1" as="geometry" />
        </mxCell>
        <mxCell id="Q_ObnjQQPtVvvJmuImZ4-11" value="" style="ellipse;whiteSpace=wrap;html=1;aspect=fixed;fillColor=#C2C2F2;flipH=0;flipV=1;strokeColor=#9393B8;" parent="1" vertex="1">
          <mxGeometry x="596" y="344" width="20" height="20" as="geometry" />
        </mxCell>
        <mxCell id="Q_ObnjQQPtVvvJmuImZ4-19" style="edgeStyle=orthogonalEdgeStyle;rounded=0;orthogonalLoop=1;jettySize=auto;html=1;exitX=1;exitY=0.5;exitDx=0;exitDy=0;entryX=0;entryY=0.5;entryDx=0;entryDy=0;strokeColor=#9933FF;fillColor=#e1d5e7;" parent="1" source="Q_ObnjQQPtVvvJmuImZ4-14" target="Q_ObnjQQPtVvvJmuImZ4-16" edge="1">
          <mxGeometry relative="1" as="geometry" />
        </mxCell>
        <mxCell id="SEHdpoZrd5pocQDFk0l2-10" style="edgeStyle=orthogonalEdgeStyle;rounded=0;orthogonalLoop=1;jettySize=auto;html=1;exitX=1;exitY=0.5;exitDx=0;exitDy=0;entryX=0.5;entryY=1;entryDx=0;entryDy=0;strokeColor=#9933FF;curved=1;dashed=1;fillColor=#e1d5e7;" parent="1" source="Q_ObnjQQPtVvvJmuImZ4-14" target="SEHdpoZrd5pocQDFk0l2-7" edge="1">
          <mxGeometry relative="1" as="geometry" />
        </mxCell>
        <mxCell id="Q_ObnjQQPtVvvJmuImZ4-14" value="" style="ellipse;whiteSpace=wrap;html=1;aspect=fixed;fillColor=#CC99FF;flipH=0;flipV=1;strokeColor=#9933FF;fontColor=#000000;" parent="1" vertex="1">
          <mxGeometry x="636" y="304" width="20" height="20" as="geometry" />
        </mxCell>
        <mxCell id="SEHdpoZrd5pocQDFk0l2-1" style="edgeStyle=orthogonalEdgeStyle;rounded=0;orthogonalLoop=1;jettySize=auto;html=1;exitX=1;exitY=0.5;exitDx=0;exitDy=0;entryX=0.5;entryY=1;entryDx=0;entryDy=0;strokeColor=#9933FF;curved=1;fillColor=#e1d5e7;" parent="1" source="Q_ObnjQQPtVvvJmuImZ4-16" target="uHRj3fKE-tSCkowMtMqk-3" edge="1">
          <mxGeometry relative="1" as="geometry" />
        </mxCell>
        <mxCell id="Q_ObnjQQPtVvvJmuImZ4-16" value="" style="ellipse;whiteSpace=wrap;html=1;aspect=fixed;fillColor=#CC99FF;flipH=0;flipV=1;strokeColor=#9933FF;fontColor=#000000;" parent="1" vertex="1">
          <mxGeometry x="766" y="304" width="20" height="20" as="geometry" />
        </mxCell>
        <mxCell id="uHRj3fKE-tSCkowMtMqk-1" value="MR" style="text;html=1;align=center;verticalAlign=middle;resizable=0;points=[];autosize=1;strokeColor=none;fillColor=none;fontSize=10;" parent="1" vertex="1">
          <mxGeometry x="766" y="339" width="40" height="30" as="geometry" />
        </mxCell>
        <mxCell id="uHRj3fKE-tSCkowMtMqk-2" value="MR" style="text;html=1;align=center;verticalAlign=middle;resizable=0;points=[];autosize=1;strokeColor=none;fillColor=none;fontSize=10;" parent="1" vertex="1">
          <mxGeometry x="626" y="339" width="40" height="30" as="geometry" />
        </mxCell>
        <mxCell id="1z-WkMcSdw22KgMj-NQd-2" style="edgeStyle=orthogonalEdgeStyle;rounded=0;orthogonalLoop=1;jettySize=auto;html=1;exitX=1;exitY=0.5;exitDx=0;exitDy=0;entryX=0;entryY=0.5;entryDx=0;entryDy=0;curved=1;strokeColor=#B266FF;fillColor=#e1d5e7;" parent="1" source="uHRj3fKE-tSCkowMtMqk-3" target="VzTGg74f6aAfM5USD1AK-1" edge="1">
          <mxGeometry relative="1" as="geometry" />
        </mxCell>
        <mxCell id="1M4202IFNgRdH-k8Q_EL-21" style="edgeStyle=orthogonalEdgeStyle;rounded=0;orthogonalLoop=1;jettySize=auto;html=1;exitX=1;exitY=0.5;exitDx=0;exitDy=0;entryX=0;entryY=0.5;entryDx=0;entryDy=0;strokeColor=#FF0000;" parent="1" source="uHRj3fKE-tSCkowMtMqk-3" target="1M4202IFNgRdH-k8Q_EL-20" edge="1">
          <mxGeometry relative="1" as="geometry" />
        </mxCell>
        <mxCell id="XZW1rvqW2NVwTFlPKyWL-2" style="edgeStyle=orthogonalEdgeStyle;rounded=0;orthogonalLoop=1;jettySize=auto;html=1;exitX=1;exitY=0.5;exitDx=0;exitDy=0;entryX=0;entryY=0.5;entryDx=0;entryDy=0;curved=1;fillColor=#e1d5e7;strokeColor=#9933FF;dashed=1;" parent="1" source="uHRj3fKE-tSCkowMtMqk-3" target="XZW1rvqW2NVwTFlPKyWL-1" edge="1">
          <mxGeometry relative="1" as="geometry" />
        </mxCell>
        <mxCell id="uHRj3fKE-tSCkowMtMqk-3" value="" style="ellipse;whiteSpace=wrap;html=1;aspect=fixed;fillColor=#FF0000;flipH=0;flipV=1;" parent="1" vertex="1">
          <mxGeometry x="816" y="264" width="20" height="20" as="geometry" />
        </mxCell>
        <mxCell id="SEHdpoZrd5pocQDFk0l2-5" value="一轮开发测试：1.1.0-alpha1" style="text;html=1;align=center;verticalAlign=middle;resizable=0;points=[];autosize=1;strokeColor=none;fillColor=none;" parent="1" vertex="1">
          <mxGeometry x="476.5" y="238" width="169" height="26" as="geometry" />
        </mxCell>
        <mxCell id="SEHdpoZrd5pocQDFk0l2-6" value="&lt;b&gt;1.1.0-alpha1&lt;/b&gt;" style="text;html=1;align=center;verticalAlign=middle;resizable=0;points=[];autosize=1;strokeColor=none;fillColor=none;" parent="1" vertex="1">
          <mxGeometry x="732.5" y="184" width="87" height="26" as="geometry" />
        </mxCell>
        <mxCell id="SEHdpoZrd5pocQDFk0l2-9" value="" style="edgeStyle=orthogonalEdgeStyle;rounded=0;orthogonalLoop=1;jettySize=auto;html=1;exitX=1;exitY=0.5;exitDx=0;exitDy=0;fillColor=#e51400;strokeColor=#FF0000;entryX=0;entryY=0.5;entryDx=0;entryDy=0;" parent="1" source="hoZQyRPOj8_Hlta-pUG5-1" target="uHRj3fKE-tSCkowMtMqk-3" edge="1">
          <mxGeometry relative="1" as="geometry">
            <mxPoint x="330" y="273.5" as="sourcePoint" />
            <mxPoint x="810" y="274" as="targetPoint" />
          </mxGeometry>
        </mxCell>
        <mxCell id="SEHdpoZrd5pocQDFk0l2-7" value="" style="ellipse;whiteSpace=wrap;html=1;aspect=fixed;fillColor=#E6E6E6;flipH=0;flipV=1;dashed=1;" parent="1" vertex="1">
          <mxGeometry x="686" y="264" width="20" height="20" as="geometry" />
        </mxCell>
        <mxCell id="SEHdpoZrd5pocQDFk0l2-11" value="[临时] 迭代版本分支 / 回归版本分支" style="text;html=1;align=center;verticalAlign=middle;resizable=0;points=[];autosize=1;strokeColor=none;fillColor=none;" parent="1" vertex="1">
          <mxGeometry x="67" y="301" width="206" height="26" as="geometry" />
        </mxCell>
        <mxCell id="SEHdpoZrd5pocQDFk0l2-12" value="[临时] 功能分支 / Bug分支" style="text;html=1;align=center;verticalAlign=middle;resizable=0;points=[];autosize=1;strokeColor=none;fillColor=none;" parent="1" vertex="1">
          <mxGeometry x="90" y="339" width="160" height="30" as="geometry" />
        </mxCell>
        <mxCell id="SEHdpoZrd5pocQDFk0l2-14" value="[临时] 协作分支" style="text;html=1;align=center;verticalAlign=middle;resizable=0;points=[];autosize=1;strokeColor=none;fillColor=none;" parent="1" vertex="1">
          <mxGeometry x="140" y="419" width="110" height="30" as="geometry" />
        </mxCell>
        <mxCell id="1z-WkMcSdw22KgMj-NQd-28" style="edgeStyle=orthogonalEdgeStyle;rounded=0;orthogonalLoop=1;jettySize=auto;html=1;exitX=1;exitY=0.5;exitDx=0;exitDy=0;entryX=0;entryY=0.5;entryDx=0;entryDy=0;curved=1;strokeColor=#9EA9B3;fillColor=#647687;" parent="1" source="fZgF5MV4RA90_CZiTTpb-1" target="1z-WkMcSdw22KgMj-NQd-19" edge="1">
          <mxGeometry relative="1" as="geometry" />
        </mxCell>
        <mxCell id="1z-WkMcSdw22KgMj-NQd-29" style="edgeStyle=orthogonalEdgeStyle;rounded=0;orthogonalLoop=1;jettySize=auto;html=1;exitX=1;exitY=0.5;exitDx=0;exitDy=0;entryX=0;entryY=0.5;entryDx=0;entryDy=0;curved=1;strokeColor=#9EA9B3;fillColor=#647687;" parent="1" source="fZgF5MV4RA90_CZiTTpb-1" target="1z-WkMcSdw22KgMj-NQd-21" edge="1">
          <mxGeometry relative="1" as="geometry">
            <Array as="points">
              <mxPoint x="1026" y="394" />
              <mxPoint x="1026" y="474" />
            </Array>
          </mxGeometry>
        </mxCell>
        <mxCell id="1M4202IFNgRdH-k8Q_EL-9" style="edgeStyle=orthogonalEdgeStyle;rounded=0;orthogonalLoop=1;jettySize=auto;html=1;exitX=1;exitY=0.5;exitDx=0;exitDy=0;entryX=0;entryY=0.5;entryDx=0;entryDy=0;strokeColor=#B98DCC;fillColor=#e1d5e7;" parent="1" source="fZgF5MV4RA90_CZiTTpb-1" target="1M4202IFNgRdH-k8Q_EL-1" edge="1">
          <mxGeometry relative="1" as="geometry" />
        </mxCell>
        <mxCell id="fZgF5MV4RA90_CZiTTpb-1" value="" style="ellipse;whiteSpace=wrap;html=1;aspect=fixed;fillColor=#C2C2F2;flipH=0;flipV=1;strokeColor=#9393B8;" parent="1" vertex="1">
          <mxGeometry x="986" y="384" width="20" height="20" as="geometry" />
        </mxCell>
        <mxCell id="1z-WkMcSdw22KgMj-NQd-13" style="edgeStyle=orthogonalEdgeStyle;rounded=0;orthogonalLoop=1;jettySize=auto;html=1;exitX=1;exitY=0.5;exitDx=0;exitDy=0;entryX=0;entryY=0.5;entryDx=0;entryDy=0;curved=1;strokeColor=#B98DCC;fillColor=#e1d5e7;" parent="1" source="VzTGg74f6aAfM5USD1AK-1" target="1z-WkMcSdw22KgMj-NQd-10" edge="1">
          <mxGeometry relative="1" as="geometry" />
        </mxCell>
        <mxCell id="1z-WkMcSdw22KgMj-NQd-14" style="edgeStyle=orthogonalEdgeStyle;rounded=0;orthogonalLoop=1;jettySize=auto;html=1;exitX=1;exitY=0.5;exitDx=0;exitDy=0;entryX=0;entryY=0.5;entryDx=0;entryDy=0;curved=1;strokeColor=#B98DCC;fillColor=#e1d5e7;" parent="1" source="VzTGg74f6aAfM5USD1AK-1" target="fZgF5MV4RA90_CZiTTpb-1" edge="1">
          <mxGeometry relative="1" as="geometry">
            <Array as="points">
              <mxPoint x="946" y="314" />
              <mxPoint x="946" y="394" />
            </Array>
          </mxGeometry>
        </mxCell>
        <mxCell id="1M4202IFNgRdH-k8Q_EL-12" style="edgeStyle=orthogonalEdgeStyle;rounded=0;orthogonalLoop=1;jettySize=auto;html=1;exitX=1;exitY=0.5;exitDx=0;exitDy=0;entryX=0;entryY=0.5;entryDx=0;entryDy=0;strokeColor=#9933FF;fillColor=#e1d5e7;" parent="1" source="VzTGg74f6aAfM5USD1AK-1" target="1M4202IFNgRdH-k8Q_EL-5" edge="1">
          <mxGeometry relative="1" as="geometry" />
        </mxCell>
        <mxCell id="VzTGg74f6aAfM5USD1AK-1" value="" style="ellipse;whiteSpace=wrap;html=1;aspect=fixed;fillColor=#CC99FF;flipH=0;flipV=1;strokeColor=#9933FF;fontColor=#000000;" parent="1" vertex="1">
          <mxGeometry x="913" y="304" width="20" height="20" as="geometry" />
        </mxCell>
        <mxCell id="1z-WkMcSdw22KgMj-NQd-3" value="1.1.0-alpha2" style="text;html=1;align=center;verticalAlign=middle;resizable=0;points=[];autosize=1;strokeColor=none;fillColor=none;fontSize=11;" parent="1" vertex="1">
          <mxGeometry x="813" y="304" width="80" height="30" as="geometry" />
        </mxCell>
        <mxCell id="1z-WkMcSdw22KgMj-NQd-4" value="&lt;b&gt;1.0.0&lt;/b&gt;" style="text;html=1;align=center;verticalAlign=middle;resizable=0;points=[];autosize=1;strokeColor=none;fillColor=none;" parent="1" vertex="1">
          <mxGeometry x="287.5" y="188" width="45" height="26" as="geometry" />
        </mxCell>
        <mxCell id="1z-WkMcSdw22KgMj-NQd-6" style="edgeStyle=orthogonalEdgeStyle;rounded=0;orthogonalLoop=1;jettySize=auto;html=1;exitX=1;exitY=0.5;exitDx=0;exitDy=0;entryX=0;entryY=0.5;entryDx=0;entryDy=0;strokeColor=#FF0000;fillColor=#e51400;" parent="1" source="1z-WkMcSdw22KgMj-NQd-5" target="hoZQyRPOj8_Hlta-pUG5-1" edge="1">
          <mxGeometry relative="1" as="geometry" />
        </mxCell>
        <mxCell id="phhaPKZVlvS99XA9p7FY-45" style="edgeStyle=orthogonalEdgeStyle;rounded=0;orthogonalLoop=1;jettySize=auto;html=1;exitX=0;exitY=0.5;exitDx=0;exitDy=0;startArrow=classic;startFill=1;endArrow=none;endFill=0;strokeColor=#FF0000;" parent="1" source="1z-WkMcSdw22KgMj-NQd-5" edge="1">
          <mxGeometry relative="1" as="geometry">
            <mxPoint x="120" y="274" as="targetPoint" />
          </mxGeometry>
        </mxCell>
        <mxCell id="1z-WkMcSdw22KgMj-NQd-5" value="" style="ellipse;whiteSpace=wrap;html=1;aspect=fixed;fillColor=#FF0000;flipH=0;flipV=1;" parent="1" vertex="1">
          <mxGeometry x="200" y="264" width="20" height="20" as="geometry" />
        </mxCell>
        <mxCell id="1M4202IFNgRdH-k8Q_EL-7" style="edgeStyle=orthogonalEdgeStyle;rounded=0;orthogonalLoop=1;jettySize=auto;html=1;exitX=1;exitY=0.5;exitDx=0;exitDy=0;entryX=0;entryY=0.5;entryDx=0;entryDy=0;strokeColor=#B98DCC;fillColor=#e1d5e7;" parent="1" source="1z-WkMcSdw22KgMj-NQd-10" target="1M4202IFNgRdH-k8Q_EL-3" edge="1">
          <mxGeometry relative="1" as="geometry" />
        </mxCell>
        <mxCell id="1z-WkMcSdw22KgMj-NQd-10" value="" style="ellipse;whiteSpace=wrap;html=1;aspect=fixed;fillColor=#C2C2F2;flipH=0;flipV=1;strokeColor=#9393B8;" parent="1" vertex="1">
          <mxGeometry x="986" y="344" width="20" height="20" as="geometry" />
        </mxCell>
        <mxCell id="1z-WkMcSdw22KgMj-NQd-16" value="1.1.0-alpha2-fix1" style="text;html=1;align=center;verticalAlign=middle;resizable=0;points=[];autosize=1;strokeColor=none;fillColor=none;fontSize=11;" parent="1" vertex="1">
          <mxGeometry x="838" y="342.5" width="100" height="25" as="geometry" />
        </mxCell>
        <mxCell id="1z-WkMcSdw22KgMj-NQd-17" value="1.1.0-alpha2-fix2" style="text;html=1;align=center;verticalAlign=middle;resizable=0;points=[];autosize=1;strokeColor=none;fillColor=none;fontSize=11;" parent="1" vertex="1">
          <mxGeometry x="838" y="380" width="100" height="25" as="geometry" />
        </mxCell>
        <mxCell id="1z-WkMcSdw22KgMj-NQd-18" style="edgeStyle=orthogonalEdgeStyle;rounded=0;orthogonalLoop=1;jettySize=auto;html=1;exitX=1;exitY=0.5;exitDx=0;exitDy=0;entryX=0;entryY=0.5;entryDx=0;entryDy=0;strokeColor=#9EA9B3;fillColor=#647687;" parent="1" source="1z-WkMcSdw22KgMj-NQd-19" target="1z-WkMcSdw22KgMj-NQd-24" edge="1">
          <mxGeometry relative="1" as="geometry" />
        </mxCell>
        <mxCell id="1z-WkMcSdw22KgMj-NQd-19" value="" style="ellipse;whiteSpace=wrap;html=1;aspect=fixed;fillColor=#D8E7F5;flipH=0;flipV=1;strokeColor=#A0ABB5;" parent="1" vertex="1">
          <mxGeometry x="1056" y="424" width="20" height="20" as="geometry" />
        </mxCell>
        <mxCell id="1z-WkMcSdw22KgMj-NQd-20" style="edgeStyle=orthogonalEdgeStyle;rounded=0;orthogonalLoop=1;jettySize=auto;html=1;exitX=1;exitY=0.5;exitDx=0;exitDy=0;entryX=0;entryY=0.5;entryDx=0;entryDy=0;strokeColor=#9EA9B3;fillColor=#647687;" parent="1" source="1z-WkMcSdw22KgMj-NQd-21" target="1z-WkMcSdw22KgMj-NQd-26" edge="1">
          <mxGeometry relative="1" as="geometry" />
        </mxCell>
        <mxCell id="1z-WkMcSdw22KgMj-NQd-21" value="" style="ellipse;whiteSpace=wrap;html=1;aspect=fixed;fillColor=#D8E7F5;flipH=0;flipV=1;strokeColor=#A0ABB5;" parent="1" vertex="1">
          <mxGeometry x="1056" y="464" width="20" height="20" as="geometry" />
        </mxCell>
        <mxCell id="1z-WkMcSdw22KgMj-NQd-22" value="1.1.0-alpha2-fix2-shm" style="text;html=1;align=center;verticalAlign=middle;resizable=0;points=[];autosize=1;strokeColor=none;fillColor=none;fontSize=11;" parent="1" vertex="1">
          <mxGeometry x="893" y="420" width="124" height="25" as="geometry" />
        </mxCell>
        <mxCell id="1z-WkMcSdw22KgMj-NQd-23" value="1.1.0-alpha2-fix2-kjh" style="text;html=1;align=center;verticalAlign=middle;resizable=0;points=[];autosize=1;strokeColor=none;fillColor=none;fontSize=11;" parent="1" vertex="1">
          <mxGeometry x="899" y="460" width="118" height="25" as="geometry" />
        </mxCell>
        <mxCell id="1M4202IFNgRdH-k8Q_EL-14" style="edgeStyle=orthogonalEdgeStyle;rounded=0;orthogonalLoop=1;jettySize=auto;html=1;exitX=1;exitY=0.5;exitDx=0;exitDy=0;entryX=0.5;entryY=1;entryDx=0;entryDy=0;curved=1;strokeColor=#9EA9B3;fillColor=#647687;" parent="1" source="1z-WkMcSdw22KgMj-NQd-24" target="1M4202IFNgRdH-k8Q_EL-1" edge="1">
          <mxGeometry relative="1" as="geometry" />
        </mxCell>
        <mxCell id="1z-WkMcSdw22KgMj-NQd-24" value="" style="ellipse;whiteSpace=wrap;html=1;aspect=fixed;fillColor=#D8E7F5;flipH=0;flipV=1;strokeColor=#A0ABB5;" parent="1" vertex="1">
          <mxGeometry x="1106" y="424" width="20" height="20" as="geometry" />
        </mxCell>
        <mxCell id="1z-WkMcSdw22KgMj-NQd-25" style="edgeStyle=orthogonalEdgeStyle;rounded=0;orthogonalLoop=1;jettySize=auto;html=1;exitX=1;exitY=0.5;exitDx=0;exitDy=0;strokeColor=#9EA9B3;fillColor=#647687;" parent="1" source="1z-WkMcSdw22KgMj-NQd-26" target="1z-WkMcSdw22KgMj-NQd-27" edge="1">
          <mxGeometry relative="1" as="geometry" />
        </mxCell>
        <mxCell id="1z-WkMcSdw22KgMj-NQd-26" value="" style="ellipse;whiteSpace=wrap;html=1;aspect=fixed;fillColor=#D8E7F5;flipH=0;flipV=1;strokeColor=#A0ABB5;" parent="1" vertex="1">
          <mxGeometry x="1106" y="464" width="20" height="20" as="geometry" />
        </mxCell>
        <mxCell id="1M4202IFNgRdH-k8Q_EL-15" style="edgeStyle=orthogonalEdgeStyle;rounded=0;orthogonalLoop=1;jettySize=auto;html=1;exitX=1;exitY=0.5;exitDx=0;exitDy=0;entryX=0.5;entryY=1;entryDx=0;entryDy=0;curved=1;strokeColor=#9EA9B3;fillColor=#647687;" parent="1" source="1z-WkMcSdw22KgMj-NQd-27" target="1M4202IFNgRdH-k8Q_EL-2" edge="1">
          <mxGeometry relative="1" as="geometry" />
        </mxCell>
        <mxCell id="1z-WkMcSdw22KgMj-NQd-27" value="" style="ellipse;whiteSpace=wrap;html=1;aspect=fixed;fillColor=#D8E7F5;flipH=0;flipV=1;strokeColor=#A0ABB5;" parent="1" vertex="1">
          <mxGeometry x="1156" y="464" width="20" height="20" as="geometry" />
        </mxCell>
        <mxCell id="1M4202IFNgRdH-k8Q_EL-11" style="edgeStyle=orthogonalEdgeStyle;rounded=0;orthogonalLoop=1;jettySize=auto;html=1;exitX=1;exitY=0.5;exitDx=0;exitDy=0;entryX=0;entryY=0.5;entryDx=0;entryDy=0;strokeColor=#9393B8;fillColor=#e1d5e7;" parent="1" source="1M4202IFNgRdH-k8Q_EL-1" target="1M4202IFNgRdH-k8Q_EL-2" edge="1">
          <mxGeometry relative="1" as="geometry" />
        </mxCell>
        <mxCell id="1M4202IFNgRdH-k8Q_EL-1" value="" style="ellipse;whiteSpace=wrap;html=1;aspect=fixed;fillColor=#C2C2F2;flipH=0;flipV=1;strokeColor=#9393B8;" parent="1" vertex="1">
          <mxGeometry x="1156" y="384" width="20" height="20" as="geometry" />
        </mxCell>
        <mxCell id="1M4202IFNgRdH-k8Q_EL-18" style="edgeStyle=orthogonalEdgeStyle;rounded=0;orthogonalLoop=1;jettySize=auto;html=1;exitX=1;exitY=0.5;exitDx=0;exitDy=0;entryX=0.5;entryY=1;entryDx=0;entryDy=0;curved=1;strokeColor=#B98DCC;fillColor=#e1d5e7;" parent="1" source="1M4202IFNgRdH-k8Q_EL-2" target="1M4202IFNgRdH-k8Q_EL-6" edge="1">
          <mxGeometry relative="1" as="geometry" />
        </mxCell>
        <mxCell id="1M4202IFNgRdH-k8Q_EL-2" value="" style="ellipse;whiteSpace=wrap;html=1;aspect=fixed;fillColor=#C2C2F2;flipH=0;flipV=1;strokeColor=#9393B8;" parent="1" vertex="1">
          <mxGeometry x="1206" y="384" width="20" height="20" as="geometry" />
        </mxCell>
        <mxCell id="1M4202IFNgRdH-k8Q_EL-8" style="edgeStyle=orthogonalEdgeStyle;rounded=0;orthogonalLoop=1;jettySize=auto;html=1;exitX=1;exitY=0.5;exitDx=0;exitDy=0;entryX=0;entryY=0.5;entryDx=0;entryDy=0;strokeColor=#B98DCC;fillColor=#e1d5e7;" parent="1" source="1M4202IFNgRdH-k8Q_EL-3" target="1M4202IFNgRdH-k8Q_EL-4" edge="1">
          <mxGeometry relative="1" as="geometry" />
        </mxCell>
        <mxCell id="1M4202IFNgRdH-k8Q_EL-3" value="" style="ellipse;whiteSpace=wrap;html=1;aspect=fixed;fillColor=#C2C2F2;flipH=0;flipV=1;strokeColor=#9393B8;" parent="1" vertex="1">
          <mxGeometry x="1066" y="344" width="20" height="20" as="geometry" />
        </mxCell>
        <mxCell id="1M4202IFNgRdH-k8Q_EL-17" style="edgeStyle=orthogonalEdgeStyle;rounded=0;orthogonalLoop=1;jettySize=auto;html=1;exitX=1;exitY=0.5;exitDx=0;exitDy=0;entryX=0.5;entryY=1;entryDx=0;entryDy=0;curved=1;strokeColor=#B98DCC;fillColor=#e1d5e7;" parent="1" source="1M4202IFNgRdH-k8Q_EL-4" target="1M4202IFNgRdH-k8Q_EL-5" edge="1">
          <mxGeometry relative="1" as="geometry" />
        </mxCell>
        <mxCell id="1M4202IFNgRdH-k8Q_EL-4" value="" style="ellipse;whiteSpace=wrap;html=1;aspect=fixed;fillColor=#C2C2F2;flipH=0;flipV=1;strokeColor=#9393B8;" parent="1" vertex="1">
          <mxGeometry x="1126" y="344" width="20" height="20" as="geometry" />
        </mxCell>
        <mxCell id="1M4202IFNgRdH-k8Q_EL-13" style="edgeStyle=orthogonalEdgeStyle;rounded=0;orthogonalLoop=1;jettySize=auto;html=1;exitX=1;exitY=0.5;exitDx=0;exitDy=0;entryX=0;entryY=0.5;entryDx=0;entryDy=0;strokeColor=#9933FF;fillColor=#e1d5e7;" parent="1" source="1M4202IFNgRdH-k8Q_EL-5" target="1M4202IFNgRdH-k8Q_EL-6" edge="1">
          <mxGeometry relative="1" as="geometry" />
        </mxCell>
        <mxCell id="1M4202IFNgRdH-k8Q_EL-23" style="edgeStyle=orthogonalEdgeStyle;rounded=0;orthogonalLoop=1;jettySize=auto;html=1;exitX=1;exitY=0.5;exitDx=0;exitDy=0;entryX=0.5;entryY=1;entryDx=0;entryDy=0;curved=1;strokeColor=#9933FF;dashed=1;fillColor=#e1d5e7;" parent="1" source="1M4202IFNgRdH-k8Q_EL-5" target="1M4202IFNgRdH-k8Q_EL-19" edge="1">
          <mxGeometry relative="1" as="geometry" />
        </mxCell>
        <mxCell id="1M4202IFNgRdH-k8Q_EL-5" value="" style="ellipse;whiteSpace=wrap;html=1;aspect=fixed;fillColor=#CC99FF;flipH=0;flipV=1;strokeColor=#9933FF;fontColor=#000000;" parent="1" vertex="1">
          <mxGeometry x="1166" y="304" width="20" height="20" as="geometry" />
        </mxCell>
        <mxCell id="1M4202IFNgRdH-k8Q_EL-24" style="edgeStyle=orthogonalEdgeStyle;rounded=0;orthogonalLoop=1;jettySize=auto;html=1;exitX=1;exitY=0.5;exitDx=0;exitDy=0;entryX=0.5;entryY=1;entryDx=0;entryDy=0;curved=1;strokeColor=#9933FF;fillColor=#e1d5e7;" parent="1" source="1M4202IFNgRdH-k8Q_EL-6" target="1M4202IFNgRdH-k8Q_EL-20" edge="1">
          <mxGeometry relative="1" as="geometry" />
        </mxCell>
        <mxCell id="1M4202IFNgRdH-k8Q_EL-6" value="" style="ellipse;whiteSpace=wrap;html=1;aspect=fixed;fillColor=#CC99FF;flipH=0;flipV=1;strokeColor=#9933FF;fontColor=#000000;" parent="1" vertex="1">
          <mxGeometry x="1246" y="304" width="20" height="20" as="geometry" />
        </mxCell>
        <mxCell id="1M4202IFNgRdH-k8Q_EL-19" value="" style="ellipse;whiteSpace=wrap;html=1;aspect=fixed;fillColor=#E6E6E6;flipH=0;flipV=1;dashed=1;" parent="1" vertex="1">
          <mxGeometry x="1206" y="264" width="20" height="20" as="geometry" />
        </mxCell>
        <mxCell id="1M4202IFNgRdH-k8Q_EL-29" style="edgeStyle=orthogonalEdgeStyle;rounded=0;orthogonalLoop=1;jettySize=auto;html=1;exitX=1;exitY=0.5;exitDx=0;exitDy=0;entryX=0;entryY=0.5;entryDx=0;entryDy=0;strokeColor=#FF0000;" parent="1" source="1M4202IFNgRdH-k8Q_EL-20" target="1M4202IFNgRdH-k8Q_EL-28" edge="1">
          <mxGeometry relative="1" as="geometry" />
        </mxCell>
        <mxCell id="1lh8aVLY4LD8ihJvDelh-21" style="edgeStyle=orthogonalEdgeStyle;rounded=0;orthogonalLoop=1;jettySize=auto;html=1;exitX=1;exitY=0.5;exitDx=0;exitDy=0;entryX=0;entryY=0.5;entryDx=0;entryDy=0;strokeColor=#9933FF;fillColor=#e1d5e7;curved=1;dashed=1;" parent="1" source="1M4202IFNgRdH-k8Q_EL-20" target="1lh8aVLY4LD8ihJvDelh-20" edge="1">
          <mxGeometry relative="1" as="geometry" />
        </mxCell>
        <mxCell id="1M4202IFNgRdH-k8Q_EL-20" value="" style="ellipse;whiteSpace=wrap;html=1;aspect=fixed;fillColor=#FF0000;flipH=0;flipV=1;" parent="1" vertex="1">
          <mxGeometry x="1286" y="264" width="20" height="20" as="geometry" />
        </mxCell>
        <mxCell id="1M4202IFNgRdH-k8Q_EL-27" value="&lt;b&gt;1.1.0-alpha2&lt;/b&gt;" style="text;html=1;align=center;verticalAlign=middle;resizable=0;points=[];autosize=1;strokeColor=none;fillColor=none;" parent="1" vertex="1">
          <mxGeometry x="1208" y="184" width="87" height="26" as="geometry" />
        </mxCell>
        <mxCell id="phhaPKZVlvS99XA9p7FY-44" style="edgeStyle=orthogonalEdgeStyle;rounded=0;orthogonalLoop=1;jettySize=auto;html=1;exitX=1;exitY=0.5;exitDx=0;exitDy=0;strokeColor=#FF0000;" parent="1" source="1M4202IFNgRdH-k8Q_EL-28" edge="1">
          <mxGeometry relative="1" as="geometry">
            <mxPoint x="1722.5" y="274" as="targetPoint" />
          </mxGeometry>
        </mxCell>
        <mxCell id="oTSuKi64It_j0n-yOg2H-11" style="edgeStyle=orthogonalEdgeStyle;rounded=0;orthogonalLoop=1;jettySize=auto;html=1;exitX=1;exitY=0.5;exitDx=0;exitDy=0;entryX=0;entryY=0.5;entryDx=0;entryDy=0;curved=1;strokeColor=#9933FF;fillColor=#e1d5e7;" parent="1" source="1M4202IFNgRdH-k8Q_EL-28" target="oTSuKi64It_j0n-yOg2H-10" edge="1">
          <mxGeometry relative="1" as="geometry" />
        </mxCell>
        <mxCell id="1lh8aVLY4LD8ihJvDelh-26" style="edgeStyle=orthogonalEdgeStyle;rounded=0;orthogonalLoop=1;jettySize=auto;html=1;exitX=1;exitY=0.5;exitDx=0;exitDy=0;entryX=0.5;entryY=0;entryDx=0;entryDy=0;curved=1;strokeColor=#FF0000;" parent="1" source="1M4202IFNgRdH-k8Q_EL-28" target="oTSuKi64It_j0n-yOg2H-3" edge="1">
          <mxGeometry relative="1" as="geometry">
            <mxPoint x="1643.7599999999998" y="385.76" as="targetPoint" />
          </mxGeometry>
        </mxCell>
        <mxCell id="1M4202IFNgRdH-k8Q_EL-28" value="" style="ellipse;whiteSpace=wrap;html=1;aspect=fixed;fillColor=#FF0000;flipH=0;flipV=1;" parent="1" vertex="1">
          <mxGeometry x="1582.5" y="264" width="20" height="20" as="geometry" />
        </mxCell>
        <mxCell id="1M4202IFNgRdH-k8Q_EL-30" value="n轮 alpha版本之后，版本稳定可发布" style="text;html=1;align=center;verticalAlign=middle;resizable=0;points=[];autosize=1;strokeColor=none;fillColor=none;" parent="1" vertex="1">
          <mxGeometry x="1316" y="238" width="213" height="26" as="geometry" />
        </mxCell>
        <mxCell id="1M4202IFNgRdH-k8Q_EL-33" value="&lt;b&gt;1.1.0&lt;/b&gt;" style="text;html=1;align=center;verticalAlign=middle;resizable=0;points=[];autosize=1;strokeColor=none;fillColor=none;" parent="1" vertex="1">
          <mxGeometry x="1517.5" y="184" width="45" height="26" as="geometry" />
        </mxCell>
        <mxCell id="phhaPKZVlvS99XA9p7FY-1" value="MR" style="text;html=1;align=center;verticalAlign=middle;resizable=0;points=[];autosize=1;strokeColor=none;fillColor=none;fontSize=10;" parent="1" vertex="1">
          <mxGeometry x="1161" y="337" width="40" height="30" as="geometry" />
        </mxCell>
        <mxCell id="phhaPKZVlvS99XA9p7FY-2" value="MR" style="text;html=1;align=center;verticalAlign=middle;resizable=0;points=[];autosize=1;strokeColor=none;fillColor=none;fontSize=10;" parent="1" vertex="1">
          <mxGeometry x="1246" y="339" width="40" height="30" as="geometry" />
        </mxCell>
        <mxCell id="phhaPKZVlvS99XA9p7FY-4" value="" style="ellipse;whiteSpace=wrap;html=1;aspect=fixed;fillColor=#FF0000;flipH=0;flipV=1;strokeColor=default;" parent="1" vertex="1">
          <mxGeometry x="300" y="670" width="20" height="20" as="geometry" />
        </mxCell>
        <mxCell id="phhaPKZVlvS99XA9p7FY-6" value="[永久] 修订分支" style="text;html=1;align=center;verticalAlign=middle;resizable=0;points=[];autosize=1;strokeColor=none;fillColor=none;fontSize=12;" parent="1" vertex="1">
          <mxGeometry x="140" y="665" width="110" height="30" as="geometry" />
        </mxCell>
        <mxCell id="phhaPKZVlvS99XA9p7FY-14" value="1.0.0-fix" style="text;html=1;align=center;verticalAlign=middle;resizable=0;points=[];autosize=1;strokeColor=none;fillColor=none;fontSize=11;" parent="1" vertex="1">
          <mxGeometry x="240" y="667.5" width="57" height="25" as="geometry" />
        </mxCell>
        <mxCell id="phhaPKZVlvS99XA9p7FY-16" value="[临时] 修订版本分支/回归版本分支" style="text;html=1;align=center;verticalAlign=middle;resizable=0;points=[];autosize=1;strokeColor=none;fillColor=none;" parent="1" vertex="1">
          <mxGeometry x="83" y="707" width="199" height="26" as="geometry" />
        </mxCell>
        <mxCell id="phhaPKZVlvS99XA9p7FY-17" value="" style="ellipse;whiteSpace=wrap;html=1;aspect=fixed;fillColor=#FF0000;flipH=0;flipV=1;strokeColor=default;fontColor=default;" parent="1" vertex="1">
          <mxGeometry x="772.5" y="670" width="20" height="20" as="geometry" />
        </mxCell>
        <mxCell id="phhaPKZVlvS99XA9p7FY-23" value="一轮修订测试：1.0.1-alpha1" style="text;html=1;align=center;verticalAlign=middle;resizable=0;points=[];autosize=1;strokeColor=none;fillColor=none;" parent="1" vertex="1">
          <mxGeometry x="476.5" y="644" width="169" height="26" as="geometry" />
        </mxCell>
        <mxCell id="phhaPKZVlvS99XA9p7FY-24" value="&lt;b&gt;1.0.1-alpha1&lt;/b&gt;" style="text;html=1;align=center;verticalAlign=middle;resizable=0;points=[];autosize=1;strokeColor=none;fillColor=none;" parent="1" vertex="1">
          <mxGeometry x="697.5" y="604" width="87" height="26" as="geometry" />
        </mxCell>
        <mxCell id="phhaPKZVlvS99XA9p7FY-41" value="&lt;b&gt;1.0.1-alpha2&lt;/b&gt;" style="text;html=1;align=center;verticalAlign=middle;resizable=0;points=[];autosize=1;strokeColor=none;fillColor=none;" parent="1" vertex="1">
          <mxGeometry x="1170" y="602" width="87" height="26" as="geometry" />
        </mxCell>
        <mxCell id="phhaPKZVlvS99XA9p7FY-43" value="修订分支保留，防止后面还会发现新的Bug需要修改；&lt;br&gt;至于问题修复是否合并到当前主分支根据实际情况决定；" style="text;html=1;align=left;verticalAlign=middle;resizable=0;points=[];autosize=1;strokeColor=none;fillColor=none;" parent="1" vertex="1">
          <mxGeometry x="1562.5" y="695" width="318" height="41" as="geometry" />
        </mxCell>
        <mxCell id="XZW1rvqW2NVwTFlPKyWL-3" style="edgeStyle=orthogonalEdgeStyle;rounded=0;orthogonalLoop=1;jettySize=auto;html=1;exitX=1;exitY=0.5;exitDx=0;exitDy=0;fillColor=#e1d5e7;strokeColor=#9933FF;dashed=1;" parent="1" source="XZW1rvqW2NVwTFlPKyWL-1" edge="1">
          <mxGeometry relative="1" as="geometry">
            <mxPoint x="1067" y="144" as="targetPoint" />
          </mxGeometry>
        </mxCell>
        <mxCell id="XZW1rvqW2NVwTFlPKyWL-1" value="" style="ellipse;whiteSpace=wrap;html=1;aspect=fixed;fillColor=#CC99FF;flipH=0;flipV=1;strokeColor=#9933FF;fontColor=#000000;" parent="1" vertex="1">
          <mxGeometry x="966" y="134" width="20" height="20" as="geometry" />
        </mxCell>
        <mxCell id="XZW1rvqW2NVwTFlPKyWL-4" value="[临时] 迭代分支：feat-1.2.0-alpha1" style="text;html=1;align=center;verticalAlign=middle;resizable=0;points=[];autosize=1;strokeColor=none;fillColor=none;fontSize=11;" parent="1" vertex="1">
          <mxGeometry x="986" y="119" width="187" height="25" as="geometry" />
        </mxCell>
        <mxCell id="XZW1rvqW2NVwTFlPKyWL-9" style="edgeStyle=orthogonalEdgeStyle;rounded=0;orthogonalLoop=1;jettySize=auto;html=1;exitX=1;exitY=0.5;exitDx=0;exitDy=0;strokeColor=#FF0000;fillColor=#e51400;" parent="1" source="XZW1rvqW2NVwTFlPKyWL-5" edge="1">
          <mxGeometry relative="1" as="geometry">
            <mxPoint x="959" y="564" as="targetPoint" />
          </mxGeometry>
        </mxCell>
        <mxCell id="XZW1rvqW2NVwTFlPKyWL-5" value="" style="ellipse;whiteSpace=wrap;html=1;aspect=fixed;fillColor=#FF0000;flipH=0;flipV=1;strokeColor=default;" parent="1" vertex="1">
          <mxGeometry x="851.5" y="554" width="20" height="20" as="geometry" />
        </mxCell>
        <mxCell id="XZW1rvqW2NVwTFlPKyWL-10" value="[永久] 功能定制主分支：xxx" style="text;html=1;align=center;verticalAlign=middle;resizable=0;points=[];autosize=1;strokeColor=none;fillColor=none;fontSize=11;" parent="1" vertex="1">
          <mxGeometry x="866" y="564" width="160" height="30" as="geometry" />
        </mxCell>
        <mxCell id="NEGnx9kiF9IFhbrtk0Hc-1" style="edgeStyle=orthogonalEdgeStyle;rounded=0;orthogonalLoop=1;jettySize=auto;html=1;exitX=1;exitY=0.5;exitDx=0;exitDy=0;entryX=0;entryY=0.5;entryDx=0;entryDy=0;curved=1;strokeColor=#9933FF;fillColor=#e1d5e7;" parent="1" target="NEGnx9kiF9IFhbrtk0Hc-10" edge="1">
          <mxGeometry relative="1" as="geometry">
            <mxPoint x="321" y="680" as="sourcePoint" />
          </mxGeometry>
        </mxCell>
        <mxCell id="NEGnx9kiF9IFhbrtk0Hc-3" style="edgeStyle=orthogonalEdgeStyle;rounded=0;orthogonalLoop=1;jettySize=auto;html=1;exitX=1;exitY=0.5;exitDx=0;exitDy=0;entryX=0;entryY=0.5;entryDx=0;entryDy=0;curved=1;strokeColor=#9EA9B3;fillColor=#647687;" parent="1" source="NEGnx9kiF9IFhbrtk0Hc-6" target="NEGnx9kiF9IFhbrtk0Hc-17" edge="1">
          <mxGeometry relative="1" as="geometry" />
        </mxCell>
        <mxCell id="NEGnx9kiF9IFhbrtk0Hc-4" style="edgeStyle=orthogonalEdgeStyle;rounded=0;orthogonalLoop=1;jettySize=auto;html=1;exitX=1;exitY=0.5;exitDx=0;exitDy=0;entryX=0;entryY=0.5;entryDx=0;entryDy=0;curved=1;strokeColor=#9EA9B3;fillColor=#647687;" parent="1" source="NEGnx9kiF9IFhbrtk0Hc-6" target="NEGnx9kiF9IFhbrtk0Hc-19" edge="1">
          <mxGeometry relative="1" as="geometry">
            <Array as="points">
              <mxPoint x="511" y="800" />
              <mxPoint x="511" y="880" />
            </Array>
          </mxGeometry>
        </mxCell>
        <mxCell id="NEGnx9kiF9IFhbrtk0Hc-5" style="edgeStyle=orthogonalEdgeStyle;rounded=0;orthogonalLoop=1;jettySize=auto;html=1;exitX=1;exitY=0.5;exitDx=0;exitDy=0;entryX=0;entryY=0.5;entryDx=0;entryDy=0;strokeColor=#B48AC7;fillColor=#e1d5e7;" parent="1" source="NEGnx9kiF9IFhbrtk0Hc-6" target="NEGnx9kiF9IFhbrtk0Hc-29" edge="1">
          <mxGeometry relative="1" as="geometry" />
        </mxCell>
        <mxCell id="NEGnx9kiF9IFhbrtk0Hc-6" value="" style="ellipse;whiteSpace=wrap;html=1;aspect=fixed;fillColor=#C2C2F2;flipH=0;flipV=1;strokeColor=#9393B8;" parent="1" vertex="1">
          <mxGeometry x="471" y="790" width="20" height="20" as="geometry" />
        </mxCell>
        <mxCell id="NEGnx9kiF9IFhbrtk0Hc-7" style="edgeStyle=orthogonalEdgeStyle;rounded=0;orthogonalLoop=1;jettySize=auto;html=1;exitX=1;exitY=0.5;exitDx=0;exitDy=0;entryX=0;entryY=0.5;entryDx=0;entryDy=0;curved=1;strokeColor=#B48AC7;fillColor=#e1d5e7;" parent="1" source="NEGnx9kiF9IFhbrtk0Hc-10" target="NEGnx9kiF9IFhbrtk0Hc-13" edge="1">
          <mxGeometry relative="1" as="geometry" />
        </mxCell>
        <mxCell id="NEGnx9kiF9IFhbrtk0Hc-8" style="edgeStyle=orthogonalEdgeStyle;rounded=0;orthogonalLoop=1;jettySize=auto;html=1;exitX=1;exitY=0.5;exitDx=0;exitDy=0;entryX=0;entryY=0.5;entryDx=0;entryDy=0;curved=1;strokeColor=#B48AC7;fillColor=#e1d5e7;" parent="1" source="NEGnx9kiF9IFhbrtk0Hc-10" target="NEGnx9kiF9IFhbrtk0Hc-6" edge="1">
          <mxGeometry relative="1" as="geometry">
            <Array as="points">
              <mxPoint x="431" y="720" />
              <mxPoint x="431" y="800" />
            </Array>
          </mxGeometry>
        </mxCell>
        <mxCell id="NEGnx9kiF9IFhbrtk0Hc-9" style="edgeStyle=orthogonalEdgeStyle;rounded=0;orthogonalLoop=1;jettySize=auto;html=1;exitX=1;exitY=0.5;exitDx=0;exitDy=0;entryX=0;entryY=0.5;entryDx=0;entryDy=0;strokeColor=#9933FF;fillColor=#e1d5e7;" parent="1" source="NEGnx9kiF9IFhbrtk0Hc-10" target="NEGnx9kiF9IFhbrtk0Hc-38" edge="1">
          <mxGeometry relative="1" as="geometry" />
        </mxCell>
        <mxCell id="NEGnx9kiF9IFhbrtk0Hc-10" value="" style="ellipse;whiteSpace=wrap;html=1;aspect=fixed;fillColor=#CC99FF;flipH=0;flipV=1;strokeColor=#9933FF;fontColor=#000000;" parent="1" vertex="1">
          <mxGeometry x="398" y="710" width="20" height="20" as="geometry" />
        </mxCell>
        <mxCell id="NEGnx9kiF9IFhbrtk0Hc-11" value="1.0.1-alpha1" style="text;html=1;align=center;verticalAlign=middle;resizable=0;points=[];autosize=1;strokeColor=none;fillColor=none;fontSize=11;" parent="1" vertex="1">
          <mxGeometry x="297" y="710" width="80" height="30" as="geometry" />
        </mxCell>
        <mxCell id="NEGnx9kiF9IFhbrtk0Hc-12" style="edgeStyle=orthogonalEdgeStyle;rounded=0;orthogonalLoop=1;jettySize=auto;html=1;exitX=1;exitY=0.5;exitDx=0;exitDy=0;entryX=0;entryY=0.5;entryDx=0;entryDy=0;strokeColor=#B48AC7;fillColor=#e1d5e7;" parent="1" source="NEGnx9kiF9IFhbrtk0Hc-13" target="NEGnx9kiF9IFhbrtk0Hc-33" edge="1">
          <mxGeometry relative="1" as="geometry" />
        </mxCell>
        <mxCell id="NEGnx9kiF9IFhbrtk0Hc-13" value="" style="ellipse;whiteSpace=wrap;html=1;aspect=fixed;fillColor=#C2C2F2;flipH=0;flipV=1;strokeColor=#9393B8;" parent="1" vertex="1">
          <mxGeometry x="471" y="750" width="20" height="20" as="geometry" />
        </mxCell>
        <mxCell id="NEGnx9kiF9IFhbrtk0Hc-14" value="1.0.1-alpha1-fix1" style="text;html=1;align=center;verticalAlign=middle;resizable=0;points=[];autosize=1;strokeColor=none;fillColor=none;fontSize=11;" parent="1" vertex="1">
          <mxGeometry x="329" y="747.5" width="100" height="25" as="geometry" />
        </mxCell>
        <mxCell id="NEGnx9kiF9IFhbrtk0Hc-15" value="1.0.1-alpha1-fix2" style="text;html=1;align=center;verticalAlign=middle;resizable=0;points=[];autosize=1;strokeColor=none;fillColor=none;fontSize=11;" parent="1" vertex="1">
          <mxGeometry x="329" y="785" width="100" height="25" as="geometry" />
        </mxCell>
        <mxCell id="NEGnx9kiF9IFhbrtk0Hc-16" style="edgeStyle=orthogonalEdgeStyle;rounded=0;orthogonalLoop=1;jettySize=auto;html=1;exitX=1;exitY=0.5;exitDx=0;exitDy=0;entryX=0;entryY=0.5;entryDx=0;entryDy=0;strokeColor=#9EA9B3;fillColor=#647687;" parent="1" source="NEGnx9kiF9IFhbrtk0Hc-17" target="NEGnx9kiF9IFhbrtk0Hc-23" edge="1">
          <mxGeometry relative="1" as="geometry" />
        </mxCell>
        <mxCell id="NEGnx9kiF9IFhbrtk0Hc-17" value="" style="ellipse;whiteSpace=wrap;html=1;aspect=fixed;fillColor=#D8E7F5;flipH=0;flipV=1;strokeColor=#A0ABB5;" parent="1" vertex="1">
          <mxGeometry x="541" y="830" width="20" height="20" as="geometry" />
        </mxCell>
        <mxCell id="NEGnx9kiF9IFhbrtk0Hc-18" style="edgeStyle=orthogonalEdgeStyle;rounded=0;orthogonalLoop=1;jettySize=auto;html=1;exitX=1;exitY=0.5;exitDx=0;exitDy=0;entryX=0;entryY=0.5;entryDx=0;entryDy=0;strokeColor=#9EA9B3;fillColor=#647687;" parent="1" source="NEGnx9kiF9IFhbrtk0Hc-19" target="NEGnx9kiF9IFhbrtk0Hc-25" edge="1">
          <mxGeometry relative="1" as="geometry" />
        </mxCell>
        <mxCell id="NEGnx9kiF9IFhbrtk0Hc-19" value="" style="ellipse;whiteSpace=wrap;html=1;aspect=fixed;fillColor=#D8E7F5;flipH=0;flipV=1;strokeColor=#A0ABB5;" parent="1" vertex="1">
          <mxGeometry x="541" y="870" width="20" height="20" as="geometry" />
        </mxCell>
        <mxCell id="NEGnx9kiF9IFhbrtk0Hc-20" value="1.0.1-alpha1-fix2-shm" style="text;html=1;align=center;verticalAlign=middle;resizable=0;points=[];autosize=1;strokeColor=none;fillColor=none;fontSize=11;" parent="1" vertex="1">
          <mxGeometry x="386" y="828.5" width="124" height="25" as="geometry" />
        </mxCell>
        <mxCell id="NEGnx9kiF9IFhbrtk0Hc-21" value="1.0.1-alpha1-fix2-kjh" style="text;html=1;align=center;verticalAlign=middle;resizable=0;points=[];autosize=1;strokeColor=none;fillColor=none;fontSize=11;" parent="1" vertex="1">
          <mxGeometry x="386" y="867.5" width="118" height="25" as="geometry" />
        </mxCell>
        <mxCell id="NEGnx9kiF9IFhbrtk0Hc-22" style="edgeStyle=orthogonalEdgeStyle;rounded=0;orthogonalLoop=1;jettySize=auto;html=1;exitX=1;exitY=0.5;exitDx=0;exitDy=0;entryX=0.5;entryY=1;entryDx=0;entryDy=0;curved=1;strokeColor=#9EA9B3;fillColor=#647687;" parent="1" source="NEGnx9kiF9IFhbrtk0Hc-23" target="NEGnx9kiF9IFhbrtk0Hc-29" edge="1">
          <mxGeometry relative="1" as="geometry" />
        </mxCell>
        <mxCell id="NEGnx9kiF9IFhbrtk0Hc-23" value="" style="ellipse;whiteSpace=wrap;html=1;aspect=fixed;fillColor=#D8E7F5;flipH=0;flipV=1;strokeColor=#A0ABB5;" parent="1" vertex="1">
          <mxGeometry x="591" y="830" width="20" height="20" as="geometry" />
        </mxCell>
        <mxCell id="NEGnx9kiF9IFhbrtk0Hc-24" style="edgeStyle=orthogonalEdgeStyle;rounded=0;orthogonalLoop=1;jettySize=auto;html=1;exitX=1;exitY=0.5;exitDx=0;exitDy=0;strokeColor=#9EA9B3;fillColor=#647687;" parent="1" source="NEGnx9kiF9IFhbrtk0Hc-25" target="NEGnx9kiF9IFhbrtk0Hc-27" edge="1">
          <mxGeometry relative="1" as="geometry" />
        </mxCell>
        <mxCell id="NEGnx9kiF9IFhbrtk0Hc-25" value="" style="ellipse;whiteSpace=wrap;html=1;aspect=fixed;fillColor=#D8E7F5;flipH=0;flipV=1;strokeColor=#A0ABB5;" parent="1" vertex="1">
          <mxGeometry x="591" y="870" width="20" height="20" as="geometry" />
        </mxCell>
        <mxCell id="NEGnx9kiF9IFhbrtk0Hc-26" style="edgeStyle=orthogonalEdgeStyle;rounded=0;orthogonalLoop=1;jettySize=auto;html=1;exitX=1;exitY=0.5;exitDx=0;exitDy=0;entryX=0.5;entryY=1;entryDx=0;entryDy=0;curved=1;strokeColor=#9EA9B3;fillColor=#647687;" parent="1" source="NEGnx9kiF9IFhbrtk0Hc-27" target="NEGnx9kiF9IFhbrtk0Hc-31" edge="1">
          <mxGeometry relative="1" as="geometry" />
        </mxCell>
        <mxCell id="NEGnx9kiF9IFhbrtk0Hc-27" value="" style="ellipse;whiteSpace=wrap;html=1;aspect=fixed;fillColor=#D8E7F5;flipH=0;flipV=1;strokeColor=#A0ABB5;" parent="1" vertex="1">
          <mxGeometry x="641" y="870" width="20" height="20" as="geometry" />
        </mxCell>
        <mxCell id="NEGnx9kiF9IFhbrtk0Hc-28" style="edgeStyle=orthogonalEdgeStyle;rounded=0;orthogonalLoop=1;jettySize=auto;html=1;exitX=1;exitY=0.5;exitDx=0;exitDy=0;entryX=0;entryY=0.5;entryDx=0;entryDy=0;strokeColor=#B48AC7;fillColor=#e1d5e7;" parent="1" source="NEGnx9kiF9IFhbrtk0Hc-29" target="NEGnx9kiF9IFhbrtk0Hc-31" edge="1">
          <mxGeometry relative="1" as="geometry" />
        </mxCell>
        <mxCell id="NEGnx9kiF9IFhbrtk0Hc-29" value="" style="ellipse;whiteSpace=wrap;html=1;aspect=fixed;fillColor=#C2C2F2;flipH=0;flipV=1;strokeColor=#9393B8;" parent="1" vertex="1">
          <mxGeometry x="641" y="790" width="20" height="20" as="geometry" />
        </mxCell>
        <mxCell id="NEGnx9kiF9IFhbrtk0Hc-30" style="edgeStyle=orthogonalEdgeStyle;rounded=0;orthogonalLoop=1;jettySize=auto;html=1;exitX=1;exitY=0.5;exitDx=0;exitDy=0;entryX=0.5;entryY=1;entryDx=0;entryDy=0;curved=1;strokeColor=#B48AC7;fillColor=#e1d5e7;" parent="1" source="NEGnx9kiF9IFhbrtk0Hc-31" target="NEGnx9kiF9IFhbrtk0Hc-40" edge="1">
          <mxGeometry relative="1" as="geometry" />
        </mxCell>
        <mxCell id="NEGnx9kiF9IFhbrtk0Hc-31" value="" style="ellipse;whiteSpace=wrap;html=1;aspect=fixed;fillColor=#C2C2F2;flipH=0;flipV=1;strokeColor=#9393B8;" parent="1" vertex="1">
          <mxGeometry x="691" y="790" width="20" height="20" as="geometry" />
        </mxCell>
        <mxCell id="NEGnx9kiF9IFhbrtk0Hc-32" style="edgeStyle=orthogonalEdgeStyle;rounded=0;orthogonalLoop=1;jettySize=auto;html=1;exitX=1;exitY=0.5;exitDx=0;exitDy=0;entryX=0;entryY=0.5;entryDx=0;entryDy=0;strokeColor=#B48AC7;fillColor=#e1d5e7;" parent="1" source="NEGnx9kiF9IFhbrtk0Hc-33" target="NEGnx9kiF9IFhbrtk0Hc-35" edge="1">
          <mxGeometry relative="1" as="geometry" />
        </mxCell>
        <mxCell id="NEGnx9kiF9IFhbrtk0Hc-33" value="" style="ellipse;whiteSpace=wrap;html=1;aspect=fixed;fillColor=#C2C2F2;flipH=0;flipV=1;strokeColor=#9393B8;" parent="1" vertex="1">
          <mxGeometry x="551" y="750" width="20" height="20" as="geometry" />
        </mxCell>
        <mxCell id="NEGnx9kiF9IFhbrtk0Hc-34" style="edgeStyle=orthogonalEdgeStyle;rounded=0;orthogonalLoop=1;jettySize=auto;html=1;exitX=1;exitY=0.5;exitDx=0;exitDy=0;entryX=0.5;entryY=1;entryDx=0;entryDy=0;curved=1;strokeColor=#B48AC7;fillColor=#e1d5e7;" parent="1" source="NEGnx9kiF9IFhbrtk0Hc-35" target="NEGnx9kiF9IFhbrtk0Hc-38" edge="1">
          <mxGeometry relative="1" as="geometry" />
        </mxCell>
        <mxCell id="NEGnx9kiF9IFhbrtk0Hc-35" value="" style="ellipse;whiteSpace=wrap;html=1;aspect=fixed;fillColor=#C2C2F2;flipH=0;flipV=1;strokeColor=#9393B8;" parent="1" vertex="1">
          <mxGeometry x="611" y="750" width="20" height="20" as="geometry" />
        </mxCell>
        <mxCell id="NEGnx9kiF9IFhbrtk0Hc-36" style="edgeStyle=orthogonalEdgeStyle;rounded=0;orthogonalLoop=1;jettySize=auto;html=1;exitX=1;exitY=0.5;exitDx=0;exitDy=0;entryX=0;entryY=0.5;entryDx=0;entryDy=0;strokeColor=#9933FF;fillColor=#e1d5e7;" parent="1" source="NEGnx9kiF9IFhbrtk0Hc-38" target="NEGnx9kiF9IFhbrtk0Hc-40" edge="1">
          <mxGeometry relative="1" as="geometry" />
        </mxCell>
        <mxCell id="NEGnx9kiF9IFhbrtk0Hc-37" style="edgeStyle=orthogonalEdgeStyle;rounded=0;orthogonalLoop=1;jettySize=auto;html=1;exitX=1;exitY=0.5;exitDx=0;exitDy=0;entryX=0.5;entryY=1;entryDx=0;entryDy=0;curved=1;strokeColor=#9933FF;dashed=1;fillColor=#e1d5e7;" parent="1" source="NEGnx9kiF9IFhbrtk0Hc-38" edge="1">
          <mxGeometry relative="1" as="geometry">
            <mxPoint x="701" y="690" as="targetPoint" />
          </mxGeometry>
        </mxCell>
        <mxCell id="NEGnx9kiF9IFhbrtk0Hc-38" value="" style="ellipse;whiteSpace=wrap;html=1;aspect=fixed;fillColor=#CC99FF;flipH=0;flipV=1;strokeColor=#9933FF;fontColor=#000000;" parent="1" vertex="1">
          <mxGeometry x="651" y="710" width="20" height="20" as="geometry" />
        </mxCell>
        <mxCell id="NEGnx9kiF9IFhbrtk0Hc-39" style="edgeStyle=orthogonalEdgeStyle;rounded=0;orthogonalLoop=1;jettySize=auto;html=1;exitX=1;exitY=0.5;exitDx=0;exitDy=0;entryX=0.5;entryY=1;entryDx=0;entryDy=0;curved=1;strokeColor=#9933FF;fillColor=#e1d5e7;" parent="1" source="NEGnx9kiF9IFhbrtk0Hc-40" edge="1">
          <mxGeometry relative="1" as="geometry">
            <mxPoint x="781" y="690" as="targetPoint" />
          </mxGeometry>
        </mxCell>
        <mxCell id="NEGnx9kiF9IFhbrtk0Hc-40" value="" style="ellipse;whiteSpace=wrap;html=1;aspect=fixed;fillColor=#CC99FF;flipH=0;flipV=1;strokeColor=#9933FF;fontColor=#000000;" parent="1" vertex="1">
          <mxGeometry x="731" y="710" width="20" height="20" as="geometry" />
        </mxCell>
        <mxCell id="NEGnx9kiF9IFhbrtk0Hc-41" value="MR" style="text;html=1;align=center;verticalAlign=middle;resizable=0;points=[];autosize=1;strokeColor=none;fillColor=none;fontSize=10;" parent="1" vertex="1">
          <mxGeometry x="646" y="743" width="40" height="30" as="geometry" />
        </mxCell>
        <mxCell id="NEGnx9kiF9IFhbrtk0Hc-42" value="MR" style="text;html=1;align=center;verticalAlign=middle;resizable=0;points=[];autosize=1;strokeColor=none;fillColor=none;fontSize=10;" parent="1" vertex="1">
          <mxGeometry x="731" y="745" width="40" height="30" as="geometry" />
        </mxCell>
        <mxCell id="NEGnx9kiF9IFhbrtk0Hc-44" value="" style="edgeStyle=orthogonalEdgeStyle;rounded=0;orthogonalLoop=1;jettySize=auto;html=1;exitX=1;exitY=0.5;exitDx=0;exitDy=0;entryX=0;entryY=0.5;entryDx=0;entryDy=0;strokeColor=#FF0000;fillColor=#e51400;" parent="1" source="phhaPKZVlvS99XA9p7FY-4" target="phhaPKZVlvS99XA9p7FY-17" edge="1">
          <mxGeometry relative="1" as="geometry">
            <mxPoint x="320" y="680" as="sourcePoint" />
            <mxPoint x="773" y="680" as="targetPoint" />
          </mxGeometry>
        </mxCell>
        <mxCell id="NEGnx9kiF9IFhbrtk0Hc-43" value="" style="ellipse;whiteSpace=wrap;html=1;aspect=fixed;fillColor=#E6E6E6;flipH=0;flipV=1;dashed=1;" parent="1" vertex="1">
          <mxGeometry x="691" y="670" width="20" height="20" as="geometry" />
        </mxCell>
        <mxCell id="NEGnx9kiF9IFhbrtk0Hc-45" value="[临时] Bug分支" style="text;html=1;align=center;verticalAlign=middle;resizable=0;points=[];autosize=1;strokeColor=none;fillColor=none;" parent="1" vertex="1">
          <mxGeometry x="184" y="746" width="100" height="30" as="geometry" />
        </mxCell>
        <mxCell id="NEGnx9kiF9IFhbrtk0Hc-46" value="[临时] 协作分支" style="text;html=1;align=center;verticalAlign=middle;resizable=0;points=[];autosize=1;strokeColor=none;fillColor=none;" parent="1" vertex="1">
          <mxGeometry x="177.5" y="825" width="110" height="30" as="geometry" />
        </mxCell>
        <mxCell id="NEGnx9kiF9IFhbrtk0Hc-47" style="edgeStyle=orthogonalEdgeStyle;rounded=0;orthogonalLoop=1;jettySize=auto;html=1;exitX=1;exitY=0.5;exitDx=0;exitDy=0;entryX=0;entryY=0.5;entryDx=0;entryDy=0;curved=1;strokeColor=#9933FF;fillColor=#e1d5e7;" parent="1" target="NEGnx9kiF9IFhbrtk0Hc-55" edge="1">
          <mxGeometry relative="1" as="geometry">
            <mxPoint x="793" y="680" as="sourcePoint" />
          </mxGeometry>
        </mxCell>
        <mxCell id="NEGnx9kiF9IFhbrtk0Hc-48" style="edgeStyle=orthogonalEdgeStyle;rounded=0;orthogonalLoop=1;jettySize=auto;html=1;exitX=1;exitY=0.5;exitDx=0;exitDy=0;entryX=0;entryY=0.5;entryDx=0;entryDy=0;curved=1;strokeColor=#9EA9B3;fillColor=#647687;" parent="1" source="NEGnx9kiF9IFhbrtk0Hc-51" target="NEGnx9kiF9IFhbrtk0Hc-62" edge="1">
          <mxGeometry relative="1" as="geometry" />
        </mxCell>
        <mxCell id="NEGnx9kiF9IFhbrtk0Hc-49" style="edgeStyle=orthogonalEdgeStyle;rounded=0;orthogonalLoop=1;jettySize=auto;html=1;exitX=1;exitY=0.5;exitDx=0;exitDy=0;entryX=0;entryY=0.5;entryDx=0;entryDy=0;curved=1;strokeColor=#9EA9B3;fillColor=#647687;" parent="1" source="NEGnx9kiF9IFhbrtk0Hc-51" target="NEGnx9kiF9IFhbrtk0Hc-64" edge="1">
          <mxGeometry relative="1" as="geometry">
            <Array as="points">
              <mxPoint x="983" y="800" />
              <mxPoint x="983" y="880" />
            </Array>
          </mxGeometry>
        </mxCell>
        <mxCell id="NEGnx9kiF9IFhbrtk0Hc-50" style="edgeStyle=orthogonalEdgeStyle;rounded=0;orthogonalLoop=1;jettySize=auto;html=1;exitX=1;exitY=0.5;exitDx=0;exitDy=0;entryX=0;entryY=0.5;entryDx=0;entryDy=0;strokeColor=#B48AC7;fillColor=#e1d5e7;" parent="1" source="NEGnx9kiF9IFhbrtk0Hc-51" target="NEGnx9kiF9IFhbrtk0Hc-74" edge="1">
          <mxGeometry relative="1" as="geometry" />
        </mxCell>
        <mxCell id="NEGnx9kiF9IFhbrtk0Hc-51" value="" style="ellipse;whiteSpace=wrap;html=1;aspect=fixed;fillColor=#C2C2F2;flipH=0;flipV=1;strokeColor=#9393B8;" parent="1" vertex="1">
          <mxGeometry x="943" y="790" width="20" height="20" as="geometry" />
        </mxCell>
        <mxCell id="NEGnx9kiF9IFhbrtk0Hc-52" style="edgeStyle=orthogonalEdgeStyle;rounded=0;orthogonalLoop=1;jettySize=auto;html=1;exitX=1;exitY=0.5;exitDx=0;exitDy=0;entryX=0;entryY=0.5;entryDx=0;entryDy=0;curved=1;strokeColor=#B48AC7;fillColor=#e1d5e7;" parent="1" source="NEGnx9kiF9IFhbrtk0Hc-55" target="NEGnx9kiF9IFhbrtk0Hc-58" edge="1">
          <mxGeometry relative="1" as="geometry" />
        </mxCell>
        <mxCell id="NEGnx9kiF9IFhbrtk0Hc-53" style="edgeStyle=orthogonalEdgeStyle;rounded=0;orthogonalLoop=1;jettySize=auto;html=1;exitX=1;exitY=0.5;exitDx=0;exitDy=0;entryX=0;entryY=0.5;entryDx=0;entryDy=0;curved=1;strokeColor=#B48AC7;fillColor=#e1d5e7;" parent="1" source="NEGnx9kiF9IFhbrtk0Hc-55" target="NEGnx9kiF9IFhbrtk0Hc-51" edge="1">
          <mxGeometry relative="1" as="geometry">
            <Array as="points">
              <mxPoint x="903" y="720" />
              <mxPoint x="903" y="800" />
            </Array>
          </mxGeometry>
        </mxCell>
        <mxCell id="NEGnx9kiF9IFhbrtk0Hc-54" style="edgeStyle=orthogonalEdgeStyle;rounded=0;orthogonalLoop=1;jettySize=auto;html=1;exitX=1;exitY=0.5;exitDx=0;exitDy=0;entryX=0;entryY=0.5;entryDx=0;entryDy=0;strokeColor=#9933FF;fillColor=#e1d5e7;" parent="1" source="NEGnx9kiF9IFhbrtk0Hc-55" target="NEGnx9kiF9IFhbrtk0Hc-83" edge="1">
          <mxGeometry relative="1" as="geometry" />
        </mxCell>
        <mxCell id="NEGnx9kiF9IFhbrtk0Hc-55" value="" style="ellipse;whiteSpace=wrap;html=1;aspect=fixed;fillColor=#CC99FF;flipH=0;flipV=1;strokeColor=#9933FF;fontColor=#000000;" parent="1" vertex="1">
          <mxGeometry x="870" y="710" width="20" height="20" as="geometry" />
        </mxCell>
        <mxCell id="NEGnx9kiF9IFhbrtk0Hc-56" value="1.0.1-alpha2" style="text;html=1;align=center;verticalAlign=middle;resizable=0;points=[];autosize=1;strokeColor=none;fillColor=none;fontSize=11;" parent="1" vertex="1">
          <mxGeometry x="771" y="712.5" width="79" height="25" as="geometry" />
        </mxCell>
        <mxCell id="NEGnx9kiF9IFhbrtk0Hc-57" style="edgeStyle=orthogonalEdgeStyle;rounded=0;orthogonalLoop=1;jettySize=auto;html=1;exitX=1;exitY=0.5;exitDx=0;exitDy=0;entryX=0;entryY=0.5;entryDx=0;entryDy=0;strokeColor=#B48AC7;fillColor=#e1d5e7;" parent="1" source="NEGnx9kiF9IFhbrtk0Hc-58" target="NEGnx9kiF9IFhbrtk0Hc-78" edge="1">
          <mxGeometry relative="1" as="geometry" />
        </mxCell>
        <mxCell id="NEGnx9kiF9IFhbrtk0Hc-58" value="" style="ellipse;whiteSpace=wrap;html=1;aspect=fixed;fillColor=#C2C2F2;flipH=0;flipV=1;strokeColor=#9393B8;" parent="1" vertex="1">
          <mxGeometry x="943" y="750" width="20" height="20" as="geometry" />
        </mxCell>
        <mxCell id="NEGnx9kiF9IFhbrtk0Hc-59" value="1.0.1-alpha2-fix3" style="text;html=1;align=center;verticalAlign=middle;resizable=0;points=[];autosize=1;strokeColor=none;fillColor=none;fontSize=11;" parent="1" vertex="1">
          <mxGeometry x="803" y="747.5" width="100" height="25" as="geometry" />
        </mxCell>
        <mxCell id="NEGnx9kiF9IFhbrtk0Hc-60" value="1.0.1-alpha2-fix4" style="text;html=1;align=center;verticalAlign=middle;resizable=0;points=[];autosize=1;strokeColor=none;fillColor=none;fontSize=11;" parent="1" vertex="1">
          <mxGeometry x="803" y="787.5" width="100" height="25" as="geometry" />
        </mxCell>
        <mxCell id="NEGnx9kiF9IFhbrtk0Hc-61" style="edgeStyle=orthogonalEdgeStyle;rounded=0;orthogonalLoop=1;jettySize=auto;html=1;exitX=1;exitY=0.5;exitDx=0;exitDy=0;entryX=0;entryY=0.5;entryDx=0;entryDy=0;strokeColor=#9EA9B3;fillColor=#647687;" parent="1" source="NEGnx9kiF9IFhbrtk0Hc-62" target="NEGnx9kiF9IFhbrtk0Hc-68" edge="1">
          <mxGeometry relative="1" as="geometry" />
        </mxCell>
        <mxCell id="NEGnx9kiF9IFhbrtk0Hc-62" value="" style="ellipse;whiteSpace=wrap;html=1;aspect=fixed;fillColor=#D8E7F5;flipH=0;flipV=1;strokeColor=#A0ABB5;" parent="1" vertex="1">
          <mxGeometry x="1013" y="830" width="20" height="20" as="geometry" />
        </mxCell>
        <mxCell id="NEGnx9kiF9IFhbrtk0Hc-63" style="edgeStyle=orthogonalEdgeStyle;rounded=0;orthogonalLoop=1;jettySize=auto;html=1;exitX=1;exitY=0.5;exitDx=0;exitDy=0;entryX=0;entryY=0.5;entryDx=0;entryDy=0;strokeColor=#9EA9B3;fillColor=#647687;" parent="1" source="NEGnx9kiF9IFhbrtk0Hc-64" target="NEGnx9kiF9IFhbrtk0Hc-70" edge="1">
          <mxGeometry relative="1" as="geometry" />
        </mxCell>
        <mxCell id="NEGnx9kiF9IFhbrtk0Hc-64" value="" style="ellipse;whiteSpace=wrap;html=1;aspect=fixed;fillColor=#D8E7F5;flipH=0;flipV=1;strokeColor=#A0ABB5;" parent="1" vertex="1">
          <mxGeometry x="1013" y="870" width="20" height="20" as="geometry" />
        </mxCell>
        <mxCell id="NEGnx9kiF9IFhbrtk0Hc-65" value="1.0.1-alpha2-fix4-shm" style="text;html=1;align=center;verticalAlign=middle;resizable=0;points=[];autosize=1;strokeColor=none;fillColor=none;fontSize=11;" parent="1" vertex="1">
          <mxGeometry x="854.5" y="827.5" width="124" height="25" as="geometry" />
        </mxCell>
        <mxCell id="NEGnx9kiF9IFhbrtk0Hc-66" value="1.0.1-alpha2-fix4-kjh" style="text;html=1;align=center;verticalAlign=middle;resizable=0;points=[];autosize=1;strokeColor=none;fillColor=none;fontSize=11;" parent="1" vertex="1">
          <mxGeometry x="854.5" y="870" width="118" height="25" as="geometry" />
        </mxCell>
        <mxCell id="NEGnx9kiF9IFhbrtk0Hc-67" style="edgeStyle=orthogonalEdgeStyle;rounded=0;orthogonalLoop=1;jettySize=auto;html=1;exitX=1;exitY=0.5;exitDx=0;exitDy=0;entryX=0.5;entryY=1;entryDx=0;entryDy=0;curved=1;strokeColor=#9EA9B3;fillColor=#647687;" parent="1" source="NEGnx9kiF9IFhbrtk0Hc-68" target="NEGnx9kiF9IFhbrtk0Hc-74" edge="1">
          <mxGeometry relative="1" as="geometry" />
        </mxCell>
        <mxCell id="NEGnx9kiF9IFhbrtk0Hc-68" value="" style="ellipse;whiteSpace=wrap;html=1;aspect=fixed;fillColor=#D8E7F5;flipH=0;flipV=1;strokeColor=#A0ABB5;" parent="1" vertex="1">
          <mxGeometry x="1063" y="830" width="20" height="20" as="geometry" />
        </mxCell>
        <mxCell id="NEGnx9kiF9IFhbrtk0Hc-69" style="edgeStyle=orthogonalEdgeStyle;rounded=0;orthogonalLoop=1;jettySize=auto;html=1;exitX=1;exitY=0.5;exitDx=0;exitDy=0;strokeColor=#9EA9B3;fillColor=#647687;" parent="1" source="NEGnx9kiF9IFhbrtk0Hc-70" target="NEGnx9kiF9IFhbrtk0Hc-72" edge="1">
          <mxGeometry relative="1" as="geometry" />
        </mxCell>
        <mxCell id="NEGnx9kiF9IFhbrtk0Hc-70" value="" style="ellipse;whiteSpace=wrap;html=1;aspect=fixed;fillColor=#D8E7F5;flipH=0;flipV=1;strokeColor=#A0ABB5;" parent="1" vertex="1">
          <mxGeometry x="1063" y="870" width="20" height="20" as="geometry" />
        </mxCell>
        <mxCell id="NEGnx9kiF9IFhbrtk0Hc-71" style="edgeStyle=orthogonalEdgeStyle;rounded=0;orthogonalLoop=1;jettySize=auto;html=1;exitX=1;exitY=0.5;exitDx=0;exitDy=0;entryX=0.5;entryY=1;entryDx=0;entryDy=0;curved=1;strokeColor=#9EA9B3;fillColor=#647687;" parent="1" source="NEGnx9kiF9IFhbrtk0Hc-72" target="NEGnx9kiF9IFhbrtk0Hc-76" edge="1">
          <mxGeometry relative="1" as="geometry" />
        </mxCell>
        <mxCell id="NEGnx9kiF9IFhbrtk0Hc-72" value="" style="ellipse;whiteSpace=wrap;html=1;aspect=fixed;fillColor=#D8E7F5;flipH=0;flipV=1;strokeColor=#A0ABB5;" parent="1" vertex="1">
          <mxGeometry x="1113" y="870" width="20" height="20" as="geometry" />
        </mxCell>
        <mxCell id="NEGnx9kiF9IFhbrtk0Hc-73" style="edgeStyle=orthogonalEdgeStyle;rounded=0;orthogonalLoop=1;jettySize=auto;html=1;exitX=1;exitY=0.5;exitDx=0;exitDy=0;entryX=0;entryY=0.5;entryDx=0;entryDy=0;strokeColor=#B48AC7;fillColor=#e1d5e7;" parent="1" source="NEGnx9kiF9IFhbrtk0Hc-74" target="NEGnx9kiF9IFhbrtk0Hc-76" edge="1">
          <mxGeometry relative="1" as="geometry" />
        </mxCell>
        <mxCell id="NEGnx9kiF9IFhbrtk0Hc-74" value="" style="ellipse;whiteSpace=wrap;html=1;aspect=fixed;fillColor=#C2C2F2;flipH=0;flipV=1;strokeColor=#9393B8;" parent="1" vertex="1">
          <mxGeometry x="1113" y="790" width="20" height="20" as="geometry" />
        </mxCell>
        <mxCell id="NEGnx9kiF9IFhbrtk0Hc-75" style="edgeStyle=orthogonalEdgeStyle;rounded=0;orthogonalLoop=1;jettySize=auto;html=1;exitX=1;exitY=0.5;exitDx=0;exitDy=0;entryX=0.5;entryY=1;entryDx=0;entryDy=0;curved=1;strokeColor=#B48AC7;fillColor=#e1d5e7;" parent="1" source="NEGnx9kiF9IFhbrtk0Hc-76" target="NEGnx9kiF9IFhbrtk0Hc-85" edge="1">
          <mxGeometry relative="1" as="geometry" />
        </mxCell>
        <mxCell id="NEGnx9kiF9IFhbrtk0Hc-76" value="" style="ellipse;whiteSpace=wrap;html=1;aspect=fixed;fillColor=#C2C2F2;flipH=0;flipV=1;strokeColor=#9393B8;" parent="1" vertex="1">
          <mxGeometry x="1163" y="790" width="20" height="20" as="geometry" />
        </mxCell>
        <mxCell id="NEGnx9kiF9IFhbrtk0Hc-77" style="edgeStyle=orthogonalEdgeStyle;rounded=0;orthogonalLoop=1;jettySize=auto;html=1;exitX=1;exitY=0.5;exitDx=0;exitDy=0;entryX=0;entryY=0.5;entryDx=0;entryDy=0;strokeColor=#B48AC7;fillColor=#e1d5e7;" parent="1" source="NEGnx9kiF9IFhbrtk0Hc-78" target="NEGnx9kiF9IFhbrtk0Hc-80" edge="1">
          <mxGeometry relative="1" as="geometry" />
        </mxCell>
        <mxCell id="NEGnx9kiF9IFhbrtk0Hc-78" value="" style="ellipse;whiteSpace=wrap;html=1;aspect=fixed;fillColor=#C2C2F2;flipH=0;flipV=1;strokeColor=#9393B8;" parent="1" vertex="1">
          <mxGeometry x="1023" y="750" width="20" height="20" as="geometry" />
        </mxCell>
        <mxCell id="NEGnx9kiF9IFhbrtk0Hc-79" style="edgeStyle=orthogonalEdgeStyle;rounded=0;orthogonalLoop=1;jettySize=auto;html=1;exitX=1;exitY=0.5;exitDx=0;exitDy=0;entryX=0.5;entryY=1;entryDx=0;entryDy=0;curved=1;strokeColor=#B48AC7;fillColor=#e1d5e7;" parent="1" source="NEGnx9kiF9IFhbrtk0Hc-80" target="NEGnx9kiF9IFhbrtk0Hc-83" edge="1">
          <mxGeometry relative="1" as="geometry" />
        </mxCell>
        <mxCell id="NEGnx9kiF9IFhbrtk0Hc-80" value="" style="ellipse;whiteSpace=wrap;html=1;aspect=fixed;fillColor=#C2C2F2;flipH=0;flipV=1;strokeColor=#9393B8;" parent="1" vertex="1">
          <mxGeometry x="1083" y="750" width="20" height="20" as="geometry" />
        </mxCell>
        <mxCell id="NEGnx9kiF9IFhbrtk0Hc-81" style="edgeStyle=orthogonalEdgeStyle;rounded=0;orthogonalLoop=1;jettySize=auto;html=1;exitX=1;exitY=0.5;exitDx=0;exitDy=0;entryX=0;entryY=0.5;entryDx=0;entryDy=0;strokeColor=#9933FF;fillColor=#e1d5e7;" parent="1" source="NEGnx9kiF9IFhbrtk0Hc-83" target="NEGnx9kiF9IFhbrtk0Hc-85" edge="1">
          <mxGeometry relative="1" as="geometry" />
        </mxCell>
        <mxCell id="NEGnx9kiF9IFhbrtk0Hc-82" style="edgeStyle=orthogonalEdgeStyle;rounded=0;orthogonalLoop=1;jettySize=auto;html=1;exitX=1;exitY=0.5;exitDx=0;exitDy=0;entryX=0.5;entryY=1;entryDx=0;entryDy=0;curved=1;strokeColor=#9933FF;dashed=1;fillColor=#e1d5e7;" parent="1" source="NEGnx9kiF9IFhbrtk0Hc-83" edge="1">
          <mxGeometry relative="1" as="geometry">
            <mxPoint x="1173" y="690" as="targetPoint" />
          </mxGeometry>
        </mxCell>
        <mxCell id="NEGnx9kiF9IFhbrtk0Hc-83" value="" style="ellipse;whiteSpace=wrap;html=1;aspect=fixed;fillColor=#CC99FF;flipH=0;flipV=1;strokeColor=#9933FF;fontColor=#000000;" parent="1" vertex="1">
          <mxGeometry x="1123" y="710" width="20" height="20" as="geometry" />
        </mxCell>
        <mxCell id="NEGnx9kiF9IFhbrtk0Hc-84" style="edgeStyle=orthogonalEdgeStyle;rounded=0;orthogonalLoop=1;jettySize=auto;html=1;exitX=1;exitY=0.5;exitDx=0;exitDy=0;entryX=0.5;entryY=1;entryDx=0;entryDy=0;curved=1;strokeColor=#9933FF;fillColor=#e1d5e7;" parent="1" source="NEGnx9kiF9IFhbrtk0Hc-85" edge="1">
          <mxGeometry relative="1" as="geometry">
            <mxPoint x="1253" y="690" as="targetPoint" />
          </mxGeometry>
        </mxCell>
        <mxCell id="NEGnx9kiF9IFhbrtk0Hc-85" value="" style="ellipse;whiteSpace=wrap;html=1;aspect=fixed;fillColor=#CC99FF;flipH=0;flipV=1;strokeColor=#9933FF;fontColor=#000000;" parent="1" vertex="1">
          <mxGeometry x="1203" y="710" width="20" height="20" as="geometry" />
        </mxCell>
        <mxCell id="NEGnx9kiF9IFhbrtk0Hc-86" value="MR" style="text;html=1;align=center;verticalAlign=middle;resizable=0;points=[];autosize=1;strokeColor=none;fillColor=none;fontSize=10;" parent="1" vertex="1">
          <mxGeometry x="1118" y="743" width="40" height="30" as="geometry" />
        </mxCell>
        <mxCell id="NEGnx9kiF9IFhbrtk0Hc-87" value="MR" style="text;html=1;align=center;verticalAlign=middle;resizable=0;points=[];autosize=1;strokeColor=none;fillColor=none;fontSize=10;" parent="1" vertex="1">
          <mxGeometry x="1203" y="745" width="40" height="30" as="geometry" />
        </mxCell>
        <mxCell id="NEGnx9kiF9IFhbrtk0Hc-93" value="" style="edgeStyle=orthogonalEdgeStyle;rounded=0;orthogonalLoop=1;jettySize=auto;html=1;exitX=1;exitY=0.5;exitDx=0;exitDy=0;entryX=0;entryY=0.5;entryDx=0;entryDy=0;strokeColor=#FF0000;fillColor=#e51400;" parent="1" target="phhaPKZVlvS99XA9p7FY-39" edge="1">
          <mxGeometry relative="1" as="geometry">
            <mxPoint x="792.26" y="680" as="sourcePoint" />
            <mxPoint x="1243" y="681" as="targetPoint" />
          </mxGeometry>
        </mxCell>
        <mxCell id="NEGnx9kiF9IFhbrtk0Hc-89" value="" style="ellipse;whiteSpace=wrap;html=1;aspect=fixed;fillColor=#E6E6E6;flipH=0;flipV=1;dashed=1;" parent="1" vertex="1">
          <mxGeometry x="1163" y="670" width="20" height="20" as="geometry" />
        </mxCell>
        <mxCell id="NEGnx9kiF9IFhbrtk0Hc-94" value="" style="endArrow=none;dashed=1;html=1;rounded=0;" parent="1" target="phhaPKZVlvS99XA9p7FY-39" edge="1">
          <mxGeometry width="50" height="50" relative="1" as="geometry">
            <mxPoint x="1252.94" y="691" as="sourcePoint" />
            <mxPoint x="1251.97" y="621" as="targetPoint" />
          </mxGeometry>
        </mxCell>
        <mxCell id="NEGnx9kiF9IFhbrtk0Hc-95" style="edgeStyle=orthogonalEdgeStyle;rounded=0;orthogonalLoop=1;jettySize=auto;html=1;exitX=1;exitY=0.5;exitDx=0;exitDy=0;strokeColor=#FF0000;fillColor=#e51400;entryX=0;entryY=0.5;entryDx=0;entryDy=0;" parent="1" source="phhaPKZVlvS99XA9p7FY-39" target="NEGnx9kiF9IFhbrtk0Hc-99" edge="1">
          <mxGeometry relative="1" as="geometry">
            <mxPoint x="1450" y="680" as="targetPoint" />
          </mxGeometry>
        </mxCell>
        <mxCell id="1lh8aVLY4LD8ihJvDelh-37" style="edgeStyle=orthogonalEdgeStyle;rounded=0;orthogonalLoop=1;jettySize=auto;html=1;exitX=1;exitY=0.5;exitDx=0;exitDy=0;entryX=0;entryY=0.5;entryDx=0;entryDy=0;strokeColor=#9933FF;fillColor=#e1d5e7;curved=1;dashed=1;" parent="1" source="phhaPKZVlvS99XA9p7FY-39" target="1lh8aVLY4LD8ihJvDelh-36" edge="1">
          <mxGeometry relative="1" as="geometry" />
        </mxCell>
        <mxCell id="phhaPKZVlvS99XA9p7FY-39" value="" style="ellipse;whiteSpace=wrap;html=1;aspect=fixed;fillColor=#FF0000;flipH=0;flipV=1;strokeColor=default;fontColor=default;" parent="1" vertex="1">
          <mxGeometry x="1242.5" y="670" width="20" height="20" as="geometry" />
        </mxCell>
        <mxCell id="NEGnx9kiF9IFhbrtk0Hc-96" value="二轮修订测试：1.0.1-alpha2" style="text;html=1;align=center;verticalAlign=middle;resizable=0;points=[];autosize=1;strokeColor=none;fillColor=none;" parent="1" vertex="1">
          <mxGeometry x="934" y="644" width="169" height="26" as="geometry" />
        </mxCell>
        <mxCell id="NEGnx9kiF9IFhbrtk0Hc-98" style="edgeStyle=orthogonalEdgeStyle;rounded=0;orthogonalLoop=1;jettySize=auto;html=1;exitX=1;exitY=0.5;exitDx=0;exitDy=0;strokeColor=#FF0000;" parent="1" source="NEGnx9kiF9IFhbrtk0Hc-99" edge="1">
          <mxGeometry relative="1" as="geometry">
            <mxPoint x="1600" y="680" as="targetPoint" />
          </mxGeometry>
        </mxCell>
        <mxCell id="NEGnx9kiF9IFhbrtk0Hc-99" value="" style="ellipse;whiteSpace=wrap;html=1;aspect=fixed;fillColor=#FF0000;flipH=0;flipV=1;" parent="1" vertex="1">
          <mxGeometry x="1516" y="670" width="20" height="20" as="geometry" />
        </mxCell>
        <mxCell id="NEGnx9kiF9IFhbrtk0Hc-100" value="&lt;b&gt;1.0.1&lt;/b&gt;" style="text;html=1;align=center;verticalAlign=middle;resizable=0;points=[];autosize=1;strokeColor=none;fillColor=none;" parent="1" vertex="1">
          <mxGeometry x="1452" y="602" width="45" height="26" as="geometry" />
        </mxCell>
        <mxCell id="NEGnx9kiF9IFhbrtk0Hc-101" value="n修订测试通过后，版本可发布" style="text;html=1;align=center;verticalAlign=middle;resizable=0;points=[];autosize=1;strokeColor=none;fillColor=none;" parent="1" vertex="1">
          <mxGeometry x="1266" y="640" width="190" height="30" as="geometry" />
        </mxCell>
        <mxCell id="oTSuKi64It_j0n-yOg2H-1" value="1.0.2、1.0.3..." style="text;html=1;align=center;verticalAlign=middle;resizable=0;points=[];autosize=1;strokeColor=none;fillColor=none;" parent="1" vertex="1">
          <mxGeometry x="1586" y="655" width="100" height="30" as="geometry" />
        </mxCell>
        <mxCell id="oTSuKi64It_j0n-yOg2H-2" value="1.2.0、1.3.0..." style="text;html=1;align=center;verticalAlign=middle;resizable=0;points=[];autosize=1;strokeColor=none;fillColor=none;" parent="1" vertex="1">
          <mxGeometry x="1711" y="254" width="100" height="30" as="geometry" />
        </mxCell>
        <mxCell id="oTSuKi64It_j0n-yOg2H-7" style="edgeStyle=orthogonalEdgeStyle;rounded=0;orthogonalLoop=1;jettySize=auto;html=1;exitX=1;exitY=0.5;exitDx=0;exitDy=0;strokeColor=#FF0000;" parent="1" source="oTSuKi64It_j0n-yOg2H-3" edge="1">
          <mxGeometry relative="1" as="geometry">
            <mxPoint x="1720" y="394" as="targetPoint" />
          </mxGeometry>
        </mxCell>
        <mxCell id="oTSuKi64It_j0n-yOg2H-3" value="" style="ellipse;whiteSpace=wrap;html=1;aspect=fixed;fillColor=#FF0000;flipH=0;flipV=1;strokeColor=default;" parent="1" vertex="1">
          <mxGeometry x="1635" y="384" width="20" height="20" as="geometry" />
        </mxCell>
        <mxCell id="oTSuKi64It_j0n-yOg2H-5" value="[永久] 修订分支" style="text;html=1;align=center;verticalAlign=middle;resizable=0;points=[];autosize=1;strokeColor=none;fillColor=none;fontSize=12;" parent="1" vertex="1">
          <mxGeometry x="1485" y="379" width="110" height="30" as="geometry" />
        </mxCell>
        <mxCell id="oTSuKi64It_j0n-yOg2H-8" value="1.1.1、1.1.2..." style="text;html=1;align=center;verticalAlign=middle;resizable=0;points=[];autosize=1;strokeColor=none;fillColor=none;" parent="1" vertex="1">
          <mxGeometry x="1706" y="369.5" width="100" height="30" as="geometry" />
        </mxCell>
        <mxCell id="oTSuKi64It_j0n-yOg2H-13" style="edgeStyle=orthogonalEdgeStyle;rounded=0;orthogonalLoop=1;jettySize=auto;html=1;exitX=1;exitY=0.5;exitDx=0;exitDy=0;strokeColor=#9933FF;fillColor=#e1d5e7;" parent="1" source="oTSuKi64It_j0n-yOg2H-10" edge="1">
          <mxGeometry relative="1" as="geometry">
            <mxPoint x="1772.5" y="144" as="targetPoint" />
          </mxGeometry>
        </mxCell>
        <mxCell id="oTSuKi64It_j0n-yOg2H-10" value="" style="ellipse;whiteSpace=wrap;html=1;aspect=fixed;fillColor=#CC99FF;flipH=0;flipV=1;strokeColor=#9933FF;fontColor=#000000;" parent="1" vertex="1">
          <mxGeometry x="1702.5" y="134" width="20" height="20" as="geometry" />
        </mxCell>
        <mxCell id="oTSuKi64It_j0n-yOg2H-12" value="[临时] 后续迭代分支" style="text;html=1;align=center;verticalAlign=middle;resizable=0;points=[];autosize=1;strokeColor=none;fillColor=none;fontSize=11;" parent="1" vertex="1">
          <mxGeometry x="1570" y="114" width="120" height="30" as="geometry" />
        </mxCell>
        <mxCell id="1lh8aVLY4LD8ihJvDelh-14" value="" style="endArrow=none;dashed=1;html=1;rounded=0;" parent="1" edge="1">
          <mxGeometry width="50" height="50" relative="1" as="geometry">
            <mxPoint x="1255.87" y="303" as="sourcePoint" />
            <mxPoint x="1255.37" y="210" as="targetPoint" />
          </mxGeometry>
        </mxCell>
        <mxCell id="1lh8aVLY4LD8ihJvDelh-18" value="二轮开发测试：1.1.0-alpha2" style="text;html=1;align=center;verticalAlign=middle;resizable=0;points=[];autosize=1;strokeColor=none;fillColor=none;" parent="1" vertex="1">
          <mxGeometry x="981.5" y="238" width="169" height="26" as="geometry" />
        </mxCell>
        <mxCell id="1lh8aVLY4LD8ihJvDelh-24" style="edgeStyle=orthogonalEdgeStyle;rounded=0;orthogonalLoop=1;jettySize=auto;html=1;exitX=1;exitY=0.5;exitDx=0;exitDy=0;entryX=0.5;entryY=1;entryDx=0;entryDy=0;curved=1;strokeColor=#9933FF;fillColor=#e1d5e7;" parent="1" source="1lh8aVLY4LD8ihJvDelh-19" target="1M4202IFNgRdH-k8Q_EL-28" edge="1">
          <mxGeometry relative="1" as="geometry" />
        </mxCell>
        <mxCell id="1lh8aVLY4LD8ihJvDelh-19" value="" style="ellipse;whiteSpace=wrap;html=1;aspect=fixed;fillColor=#CC99FF;flipH=0;flipV=1;strokeColor=#9933FF;fontColor=#000000;" parent="1" vertex="1">
          <mxGeometry x="1530" y="304" width="20" height="20" as="geometry" />
        </mxCell>
        <mxCell id="1lh8aVLY4LD8ihJvDelh-22" style="edgeStyle=orthogonalEdgeStyle;rounded=0;orthogonalLoop=1;jettySize=auto;html=1;exitX=1;exitY=0.5;exitDx=0;exitDy=0;entryX=0;entryY=0.5;entryDx=0;entryDy=0;strokeColor=#9933FF;fillColor=#e1d5e7;dashed=1;" parent="1" source="1lh8aVLY4LD8ihJvDelh-20" target="1lh8aVLY4LD8ihJvDelh-19" edge="1">
          <mxGeometry relative="1" as="geometry" />
        </mxCell>
        <mxCell id="1lh8aVLY4LD8ihJvDelh-20" value="" style="ellipse;whiteSpace=wrap;html=1;aspect=fixed;fillColor=#CC99FF;flipH=0;flipV=1;strokeColor=#9933FF;fontColor=#000000;" parent="1" vertex="1">
          <mxGeometry x="1360" y="304" width="20" height="20" as="geometry" />
        </mxCell>
        <mxCell id="1lh8aVLY4LD8ihJvDelh-23" value="" style="endArrow=none;dashed=1;html=1;rounded=0;" parent="1" edge="1">
          <mxGeometry width="50" height="50" relative="1" as="geometry">
            <mxPoint x="1539.8799999999999" y="301" as="sourcePoint" />
            <mxPoint x="1539.3799999999999" y="208" as="targetPoint" />
          </mxGeometry>
        </mxCell>
        <mxCell id="1lh8aVLY4LD8ihJvDelh-28" value="1.1.0-fix" style="text;html=1;align=center;verticalAlign=middle;resizable=0;points=[];autosize=1;strokeColor=none;fillColor=none;fontSize=11;" parent="1" vertex="1">
          <mxGeometry x="1575" y="379" width="60" height="30" as="geometry" />
        </mxCell>
        <mxCell id="1lh8aVLY4LD8ihJvDelh-33" style="edgeStyle=orthogonalEdgeStyle;rounded=0;orthogonalLoop=1;jettySize=auto;html=1;exitX=1;exitY=0.5;exitDx=0;exitDy=0;entryX=0.5;entryY=1;entryDx=0;entryDy=0;curved=1;strokeColor=#9933FF;fillColor=#e1d5e7;" parent="1" source="1lh8aVLY4LD8ihJvDelh-34" edge="1">
          <mxGeometry relative="1" as="geometry">
            <mxPoint x="1527" y="690" as="targetPoint" />
          </mxGeometry>
        </mxCell>
        <mxCell id="1lh8aVLY4LD8ihJvDelh-34" value="" style="ellipse;whiteSpace=wrap;html=1;aspect=fixed;fillColor=#CC99FF;flipH=0;flipV=1;strokeColor=#9933FF;fontColor=#000000;" parent="1" vertex="1">
          <mxGeometry x="1464" y="710" width="20" height="20" as="geometry" />
        </mxCell>
        <mxCell id="1lh8aVLY4LD8ihJvDelh-35" style="edgeStyle=orthogonalEdgeStyle;rounded=0;orthogonalLoop=1;jettySize=auto;html=1;exitX=1;exitY=0.5;exitDx=0;exitDy=0;entryX=0;entryY=0.5;entryDx=0;entryDy=0;strokeColor=#9933FF;fillColor=#e1d5e7;dashed=1;" parent="1" source="1lh8aVLY4LD8ihJvDelh-36" target="1lh8aVLY4LD8ihJvDelh-34" edge="1">
          <mxGeometry relative="1" as="geometry" />
        </mxCell>
        <mxCell id="1lh8aVLY4LD8ihJvDelh-36" value="" style="ellipse;whiteSpace=wrap;html=1;aspect=fixed;fillColor=#CC99FF;flipH=0;flipV=1;strokeColor=#9933FF;fontColor=#000000;" parent="1" vertex="1">
          <mxGeometry x="1306" y="710" width="20" height="20" as="geometry" />
        </mxCell>
      </root>
    </mxGraphModel>
  </diagram>
</mxfile>
